<?xml version="1.0" encoding="UTF-8"?>
<svg id="Layer_1" xmlns="http://www.w3.org/2000/svg" version="1.1" viewBox="0 0 160 160">
  <!-- Generator: Adobe Illustrator 29.4.0, SVG Export Plug-In . SVG Version: 2.1.0 Build 152)  -->
  <defs>
    <style>
      .st0 {
        fill: #fff;
      }
    </style>
  </defs>
  <path d="M41.05,91.92l-.03.41h-.43s-.31-1.02-.31-1.02c-.21.23-.72-.05-.72-.22,0-.07.63-.46.44-.81-.14,0-.31,0-.42-.08-.34-.23-.71-.5-1-.65-.43-.22-.7-.37-1.14,0-.52.43.45.83.37,1.47.63.24-.13-.98.36-.73.22.11,1.05,1.66.96,2.05l.44-.15c-.02.4.17.7.59.74-.08.44-.55.12-.58.15-.02.02-.02.38-.21.6-.2.23-1.24.66-1.37.9-.27.47-.2,1.32.47,1.3.53-.02.85-.44,1.4-.31-.54.56.97.04,1.01-.02.15-.24-.26-.66.53-1.01.5.94,1.66.63,2.57.73-.27-.98-1.47-1.1-2.18-1.63l.06-1.02c.37-.32.73-.47,1.22-.46.13-.22.15-.47.17-.71-.79-.48-1.42.33-2.18.47Z"/>
  <path d="M127.43,40.24c.15.34-.31.48-.31.52,0,.32.4,1.1.82,1.09l-.37-1.02.52-.14c.07-.08.06-.2.06-.3-.13-.05-.66-.21-.73-.14Z"/>
  <path d="M145.02,61.73c-.28-.45-.84-.55-1.17-.88-.26-.26-.56-1.07-.73-1.17-.09-.06-.31.06-.44,0-.46-.25-.58-1.91-1.03-2.21-.19-.12-.24-.08-.38.07l-.07.59s-.17-.07-.22-.15c-.99-1.54-1.33-3.5-2.12-4.89-.1-.17-.35-.03-.45-.19-.34-.59.09-.8.15-1.16.09-.6-.43-1.08-.58-1.61-.17-.61.02-1.7-.59-2.04l.3-.29v-.29c-.3-.18-.52-.29-.72-.61-.49-.8-1.17-2.74-1.57-3.71-.06-.14-.29-.25-.33-.41-.09-.34.36-.82.27-1.22l-.99-.04-1.94-3.86c-.11-.4.47-.08.66-.36.06-.08.21-.94.18-1.07-.03-.15-1.26-2.34-1.46-2.66-.43-.71-1.2-1.7-1.72-2.38-.91-1.18-2.12-2.18-3.02-3.44-.37-.53-.64-.9-.53-1.6l-.88.08-2.2-1.62.44-.65c-1.03-.39-2.1-.56-3.01-1.18-.76-.52-1.66-1.4-2.35-2.05-.42-.4-1.81-2.08-2.15-2.25-.27-.13-.56-.12-.85-.11-.19.64.32.45.29.88-.1.08-1.16-.04-1.35-.15-.21-.12-.23-.51-.5-.55-.16-.03-.4.14-.68.09-.27-.05-.6-.39-.99-.27l.15-.29c-.18-.17-2.54-.4-2.93-.67-.15-.11-.19-.17-.15-.36h1.25s.07-.44.07-.44c-.52-.22-1.01.22-1.28.27-.09.02-1.27-.25-1.85-.22-2.7.17-5.76-.39-8.46.32-1.09.29-2.36.86-3.49,1.21-.4.13-1.14.15-1.55.36-.3.16-.22.44-.4.63-.8.83-2.13.42-3.11.7-.15.04-1.57.76-1.63.83-.13.13-.03.38-.19.45-.2.09-1.06.18-1.3.15-1.01-.11-2.45-.73-3.44-.97-1.11-.27-2.25-.5-3.38-.66.43-1.36.01-.83-.58-1.26-.21-.15-.43-.75-.69-.78-.19-.03-.34.28-.54.26-.23-.03-1.04-.45-1.39-.52-1.62-.35-3.71-.52-5.21-1.25-.28-.13-.39-.4-.66-.51-1.05-.43-2.46-.03-3.56-.04l1.25-.88,2.12.3c-.43-1.38-2.37-.62-3.45-1.03-.61.33-1.29-.01-1.75,0-.08,0-.07.24-.29.32-.5.18-1,.04-1.45.15-1.32.32-2.4,1.18-3.92.85v.73c-.28-.06-1.1-.14-1.29.03-.1.09-.07.76-.38,1.01-.51.41-2.34.35-2.14,1.6l.58.07c-.8.49-2.27.74-3.01,1.24-.33.22-.28.59-.46.75-.4.35-1.8.81-2.32,1.16-.52.35-1.12,1.05-1.82,1.56-.07.05-1.02.98-.89.57.43-.52.46-.86-.29-.58-2.55,2.35-5,4.78-7.55,7.11-1.39,1.27-2.56,2.74-3.94,4.06-1.08,1.03-1.78,2.06-2.45,3.49-.28.61.09.74-.81,1.11.13.86-.02,1.53-.28,2.35-.4,1.25-.98,1.93-1.61,2.94-.48.78-.36,1.18-.59,1.9-.48,1.48-1.09,2.92-1.47,4.41-.16.25-.73-.3-1.11.64-.41,1-.73,2.77-1.09,3.9-.44,1.42-.89,2.98-1.47,4.39-.17.43.12.95-.66.89-.14.43.37.17.3.51-.02.09-.34,1.01-.38,1.1-.53,1.11-.5,1.24-.87,2.36-.49,1.47-1.51,3.28-2.13,4.76-.73,1.72-1.29,3.59-2.2,5.25-.12.22-.48.22-.57.5-.06.27.38.57.38.71,0,.18-.43.71-.1,1.25l-.72-.14-.03.96-.27.07.27.16c-.21.36.03.98.31,1.24.2.19.5.19.66.37.14.16.19.54.37.76.47.59,1.57,1.27,2.11,2.06.28.4.25.53.1.99.62.2.54-.48,1.08-.27.07.03,1,1.04,1.06,1.16.12.24-.2.46-.24.8-.03.24.1,1.35.17,1.58.04.13.25.12.33.29.38.88.5,1.85,1.07,2.59.21.27.82.62,1.02,1.04.15-1.07-1.31-1.71-.96-2.93h-.37c-.04-.46-.35-.89-.45-1.31-.06-.27-.28-1.18.23-1.04.01.2-.03.44.03.63.23.66,1.01,1.73,1.43,2.38,1,1.56,1.68,3.1,2.25,4.8.29.87.62,1.49.54,2.46l-.4-.18c-.27-1.2-.66-2.31-1.27-3.36-.13-.22-.03-.71-.53-.35-.09.06-.26.51-.26.62.38.69.74,1.43,1.01,2.17.24.66.31,1.29.43,2.05.04.22.26.38.28.6.08.67-.87,1.84-.44,2.71l-.29-.44c-1.22.17-.28.45-.17.62.05.07-.06.24-.04.33.2.8-.06.48-.08.89-.02.36.67,1.33.29,1.98l.56-.13c.28.43.3.66.17,1.16l1.17.15c.1-.08-.85-1.12-.84-1.24,0-.09.24-.22.23-.42-.01-.2-.35-.66-.4-1.07-.16-1.2.63-2,.57-3.14.5.3.23,1.21.44,1.76l-.44-.07c.16.2.48.37.56.62.12.42.3,2.37.39,2.54.1.18.4.22.48.33.14.2.18.79.29,1.1.06.18.31.16.33.28.26,1.18-.39,2.21-.42,3.2,0,.36.25.88.11,1.31l.52.38c.73-.16.11-.8.1-1.25l.27-1.1c0,1.09.14,2.21.3,3.29.03.22.24.38.28.6.11.64-.15,1.16-.14,1.6,0,.06.69.42.44.96h-.95s-.07.29-.07.29c.62.39,1.17.58,1.36,1.35.11.43.05.82.13,1.19.23.94.5,1.89.71,2.83l-.3.28c.39.23.73.83.95,1.26.11.21.03.47.13.69.03.08.55.38.6.49.13.25.04.58.15.74.06.1,1.51.4.49.58-.23.04-.08.29-.11.44l.53-.28.27.13c-.02.64.47.68.7,1.06.2.34.18.95.39,1.22.27.34.81.18,1.09.54.06.08.73,1.59.77,1.72.06.22-.07.39-.09.59h.59s-.15.59-.15.59l.44-.15-.02.57c-.41.07-.59.18-.64.32.22.34.37.69.43,1.06l.24-.13c.5.45,1.4,1.47,1.16,2.19-.08.22-.77.42-.57.68.31.39.88-.04,1.22.17.46.29.97,1.42-.24.86l-.1-.45-.28.35.53.52c.08,0,.16.02.23.03.21-.12.55-.2.63-.31.22-.33-.19-1,.36-.89-.06.56-.06.71.44.95l-.73.3c.03.06.06.13.09.19.9.38,1.57,1.09,2.08,1.99.04.02.09.04.14.06.39.14,1.3.35,1.55.61.15.15.11.42.25.52.3.22.96,0,.88.81.65-.39,1.04.35,1.35.48.54.23,1.49.37,2.05.59.63.24,1.22.66,1.88.84l-.22.29-2.93-1.03c-.74.5.64,1.03,1.1,1.22.13.05.31-.02.44.02.38.14.63.52,1.17.37l-.09.74,1.19.87c.39.17.13-.57.23-.72.92-.25,1.67-.24,2.63-.16l.08.44c.53-.36.77.06,1.06.12.31.06,1.17-.34.99.32l.15.15c.27-.04.54-.13.51-.44h.22c.28.52,1.27.3,1.83.73l-1.37.15-.24.21c0,.26,1.45.68,1.76.75.25.06.51-.11.64-.09.1.01.08.28.18.3.26.04,1.79-.32,2.31-.26.26.03.47.37.76.4.3.04.54-.16.71-.15.09,0,.07.27.18.3.12.03,2.27.27,2.46.27.26,0,1.24-.4,1.18.17-.07.62-.73-.03-.66.59h.88v-.73s.3.29.3.29h.22s.16-.3.16-.3c.5.25,1.05.1,1.57.19.86.15.26.26,1.21.12.87-.13,1.04.37,1.34.41.17.02.3-.22.53-.24,1.12-.06,3.01.36,4.28.41,2.64.1,6.17.15,8.67-.43.26-.06.58.04.85-.03l.46-.71-.07.59,1.81-.17.24-.71c.64-.13.19.98.8.73.41-.17.02-.65.07-.73.07-.1,2.36-.27,2.35.07l-.29.81,1.99-.06c1.19-.88,3.22-.72,4.26-1.41,1.3.6,1.26-.14,1.86-.48.43-.24.93-.32,1.37-.53l.2-.02v.44c.36-.24.82.03,1.07-.02.18-.04,1.94-1.18,2.42-1.4.76-.34,3.41-1.43,4.08-1.5.33-.04.78.2,1.12,0,.18-.1.09-.39.25-.52.62-.48,3.07-1.18,3.85-1.55.15-.07.19-.35.48-.43.49-.07-.07.43.14.73l.52.08c.68-.88.94-1.96,1.49-2.92,2.1-3.71,5.25-7.72,6.73-11.75.47-1.29.84-2.72,1.36-4.07.64-1.67,1.46-3.36,2.23-4.96l-.22,2.05c.5.16.6-.41.7-.84.56-2.62.72-4.41,1.71-6.93.23-.59.06-2.07.27-2.98.07-.29.35-.47.4-.77.08-.41-.03-1.98.58-1.04-.33,1.15-.38,2.47-.64,3.62-.28,1.22-.81,2.41-.97,3.58-.03.22-.03.63.08.82l.52-.11.9-4.35c.09-.28.5-.17.69-.48.19-.31.23-1.27.33-1.72.29-1.25.71-2.59.98-3.87.26-1.28.67-5.52,1.14-6.35.11-.2.26-.24.22.07-.11.8-.35,1.76-.43,2.52-.15,1.6-.11,3.28-.16,4.89l.56-.25,1.35-16.19c.61-.11.15.78.19,1.08.03.26.29.51.47.68l.35-.24c-.17-.65,0-1.15.02-1.73.06-2.14-.02-3.99.25-6.06.05-.41.12-2.02.33-2.17l.29.15-.15.95c.69,0,.25-.95.22-1.24-.02-.16.12-.39.09-.56-.03-.16-.69-.28-.6-.62.05-.18.71-.14.36-.96l.3.15.22-.88-.44.29-.15-.95.28-.15-.13-.37.58-.24c-.23-.52-.03-.88,0-1.32.12-2.56.52-5.08.84-7.64.08-.61-.07-1.36-.01-1.83.05-.38.41-.64.48-.97.1-.44-.33-.97.52-1.05.7.44.5,2.16,1.12,2.41l.29-.15c.11-.45-.25-.68-.29-.88-.02-.08.23-.04.28-.18.38-1.02.02-.73-.26-1.15-.08-.12-.53-.88-.46-.94.36-.01.77.12,1.02-.22ZM136.8,55.14c.25.55.48,1.13.74,1.68-.96-.29-.82-1.31-1.17-2.05.34-.06.33.15.43.37ZM136.81,58.43l.59,1.61c-.56-.02-.76-.34-.76-.86l-.41-.02c-.08-.48.03-.81.58-.73ZM133.36,67.53c.7-.04,1.3.11,1.99.15-.54,1.02-1.33,1.95-1.62,3.08-.58-.28-1.16-.59-1.76-.8-.48-.17-3.82-.98-3.82-1.18l.47-1.07,2.18-.32c.6-.46-1.74-.35-1.83-.15l-.15-.14c.19-.45-.29-.61-.34-.83-.13-.57.5-.45.69-.57,1.22-.78.86-3.11.89-4.4,0-.48.17-.91.16-1.47-.02-.84-.33-1.86-.45-2.71.27.14.66.03.88.09.1.03.21.26.4.32.63.19,1.3.19,1.95.62l-.02.28-.26.2c.35.8.95,1.39,1.36,2.17.62,1.18,1.24,3.12,1.6,4.41.13.44.62,1.98,0,2.16-1.32.06-2.84-.75-4.01.09-.14.6,1.35.08,1.68.07ZM125.66,47.87c-.06-.07-.45.37-.88-.22-.3-.42-.13-.71-.24-.96-.11-.25-.41-.56-.55-.9-.29-.68-.04-1.54-1.12-1.31l-.15-1.39.29-.07c-.02.45,1.08.81,1.25,1.02.18.23.12.82.27,1.13.42.84,1.91,2.07,2.51,2.99.13.21.93,1.64.82,1.75-.72.11-1.25-.85-1.68-1.33-.14-.16-.42-.23-.48-.33-.08-.13-.02-.37-.04-.39ZM125.47,44.54s.59.45.61.48c.08.09.38.72.31.79-.61-.07-.75-.86-1.32-1.1-.06-.33.22-.26.4-.17ZM127.29,47.17c-.16-.39-.14-1.06-.3-1.5.23-.22,1.47.71,1.32,1.17-.32-.04-.51-.28-.73.07l.58,1.03c-.11.3-.84-.72-.87-.78ZM128.62,50.47c.16.1.37,0,.55.04-.13.79.69.86,1.09,1.33.19.22.59.98.68,1.3-.16.16-1.72-1.05-1.66-1.43-.63-.05-.83-.95-.83-1.5.24-.06.09.2.17.26ZM132.12,53.51l.44-.36,1.03,1.69c.51.54,1.72,1.26,1.85,1.97.17.92-1.46,0-1.31-.68l-2-2.62ZM132.99,55.28c.17.13.45.75.62,1,.17.26.56.18.42.68-.27.08-.35-.22-.54-.27-.23-.05-.45.15-.67.1-.17-.04-1.84-.93-2.07-1.1-.09-.07-.27-.05-.32-.1-.24-.26-.58-.93-.72-1.27-.13-.31.1-.8-.36-.74.16-.56,1.03-.58.85.04-.11.36-.55.46.18.84l.29-.73c-.14.58.27.37.39.48.16.15.2.39.41.55.44.32,1.19.25,1.54.51ZM128.9,58.38c0-.11.07-.7.28-.67-.1.29.3.82.3.95v3.01l-.42-1.85c.07-.48-.15-1-.15-1.43ZM135.89,63.98c-.22-.86-.66-1.71-.69-2.61,1.29,1.12,1.28,2.98,1.32,4.55-.64-.32-.46-1.3-.63-1.94ZM122.95,30.55c.18,0,1.03,1.65,1.15,1.91.06.11-.04.3.03.43.04.08.91,1.25.8,1.33l-.67-.14c.15-.68-1.73-2.77-1.66-3.14l.34-.39ZM109.38,19.26c.51-.36.99-.53,1.46.07-.18.43-1.63.22-1.46-.07ZM103.57,19.24c.63-.11.87-.57,1.7.02l-.07.29-3.59.29c.33-.76,1.23-.46,1.97-.6ZM100.01,19.57l.86-.02-.17.72-.56.02c0,.32.03.77-.45.73l.31-1.44ZM94.57,20.57l.36.3c.41-.3.88-.27,1.31-.46.23-.1.7-.54.74-.54.1,0,.24.27.42.25.18-.03.67-.77,1.12-.57l-.02.72c-1.59.25-3.09.83-4.68,1.19l.74-.88ZM82.1,22.48c.64-.21,1.28.22,1.99.3.43.05.93-.46.65.43-.78-.29-1.63-.25-2.42-.44-.22-.05-.26.1-.22-.29ZM29.87,62.17c.18-1.61.05-3.89.47-5.4.05-.17.51-.77.66-1.11.05-.11.28-1.4.49-1.2l.29.44c.09-.39-.15-.83-.08-1.18.05-.26.28-.47.34-.69.22-.96.62-3.99,1.29-4.58.25-.22.68-.08.79-.38l-.06-1.96h.81s.18-1.05.24-1.18c.11-.22.39-.33.5-.51.55-.91.61-1.68,1.01-2.66.1-.24.85-1.34,1.03-1.22.03.02-.05.38.23.28.46-.49.73-1.11,1.17-1.62.16-.19.51-.3.6-.44.12-.19-.05-.42.01-.59.74-1.9,3.01-4.47,4.31-6.09.21-.26.32-.81.58-1.03.63-.52-.17,1.07,0,1.25l.67-.14c.09-.19.03-.45.11-.63.71-1.67,1.87-3.26,3.35-4.28.22-.15.92-.35.98-.43.07-.09,0-.33.04-.38.1-.1.59.07.87-.09.17-.1.38-.68.66-.81.21.11,0,.38-.07.52-.05.11-.8,1.32-.23,1.09.45-.18.95-1.66,1.31-1.92.25-.17.56-.09.81-.21.32-.15.76-.87,1.1-1.1.23-.15.52-.13.75-.28.33-.22.4-.67.67-.95.1-.1,1.37-1.02,1.48-1.09.05-.03.74.12,1.01.04.42-.12,1.48-.8,1.75-1.16.2-.26.08-.9.81-.38.27.19.27.85.57.74.36-.13-.14-.71.32-.86,1.17.09,2.52-.34,3.64-.32.68,0,1.56.33,2.22.51,1.93.52,3.57,1.14,5.54,1.4.11.01.11.25.2.3.78.37,1.19.12,2.02.16l.37-.45-.15.58c.5.04,1.03-.05,1.53,0,.2.02.34.23.49.25,1.85.31,3.89.91,5.68,1.29.19.04,1.17,0,1.25.07v.87c.31-.1.66.23.81.24.41.03,1.04-.96,1.75-.82.12.02.3.23.08.37-.17.11-.63-.22-.59.36l1.01-.17.03-.39,3.73.39c1.52-.37,2.9.62,4.47.18v-.44c-.5.11-1.16-.27-1.57-.26-.89.04-.49.15-1.59-.03-.85-.14-2.12-.03-3.07-.16-.22-.03-.88-.06-.95-.29.68-.42,1.31.05,1.79-.03.58-.09,1.59-.66,2.12-.83,1.26-.4,3.36-.4,4.63-.77.13-.04.1-.29.19-.29.63-.03.95.04,1.76-.06.4-.05,2.48-.16,2.57-.47.06-.22.05-.56-.3-.5.12-.46.46-.13.67-.17,1.42-.24,5.92-.82,7.14-.26.13.06.73.45,1.04.62.44.24.74.87,1.21.26l.22.59.73-.14.26.66c-.83.36.1,1.72.47,1.39l-.29-.51c.81-.18,1.41.82,2.2.66l-.15.58.72.02.03.39c.81-.06.86.6,1.3.99.47.42,1.35.7,1.18,1.39h.58c-.19.8.51.64.67.88.24.34-.16.83.95.74l-.59.66c.1.22.77.44.96.66.18.2.17.48.25.56.82.78,1.33,1.28,1.92,2.55.14.3.31,1.54.69,1.23.13-.1.06-.42.28-.37-.02.41.55.63.66.88.14.31.03.68.15,1.03.3.89.92,1.74,1.18,2.64.29,1,.26,1.91.4,2.83.12.8.64.63,1.14.99,0-.7-.34-.91-.31-1.39.02-.41.49-.92.46-1.39h-.59c.4-.59-.25-.58-.15-.81.2-.44.82-.01.88-.08v-.37c-.59-.21-.44-.7-.62-1.14-.1-.24-.32-.33-.41-.62-.09-.31.05-.12.15-.17.15-.07.42-.19.58-.13.3.1,1.65,1.6,1.59,1.89-.03.13-.4.39-.26.54.28.31.26-.44.51-.29,1.14.63.9,2.11,2.07,2.49l-.09.74.58-.15c-.15.81.22.48.39.63.19.16.34.61.64.77l-.44.29.74.6c-.28.31.08,1.94-.59,1.6-.5-.26-.35-.75-.52-1.1-.22-.45-.9-1.13-1.14-1.5-.51-.82-1.07-2.27-1.64-2.9-.13-.14-.46-.53-.61-.56-.93-.17-.2.75-.2,1,.15.06.56.25.59.37.11.44-.75.18-.59.66l.88-.15c-.06.16.14.35.14.37,0,.43-.7-.15-.58.29l.88.37-.15.73.51-.44.36.38-.43.93c.39-.44,1.23.5,1.28.83.03.17-.11.32-.11.49-.46-.12-.89-.6-1.32-.07.73.25.45.79.62,1.07.08.14.47.05.32.62.81.15.4.42.61,1.02.11.32.42.49.66.69l-.16.49-.29-.14c-.25,1.11.35.78.52,1.02.1.15.06.42.07.6l.58.07-.29.51c.76-.41.82.52,1.39.88.18-.1.37-.59.58-.29.22.31,1.21,2.66,1.33,3.07.07.25.09.48.07.74l-.73-.22c.38-.62.2-.76-.01-1.37-.55-.17-.71.52-1.09,0-.27-.37-.14-.64-.29-.89-.1-.17-.46-.21-.58-.45-.09-.17-.03-.46-.1-.55-.09-.12-.49-.09-.66-.22-.18-.13-.31-.68-.48-.91-.45-.59-3.34-3.22-2.79-3.89l1.1.88.22-.73c-1.52.38-1.83-3.18-2.49-3.38.03.22-.15.47-.11.64.05.27.85.81.33,1.41l-1.62-1.32.08-2.05c-.51-.12-.24.68-.32,1.07-.28,1.23-1.08-.06-1.36-.63l-.44.29c-.3-.14-.19-.74-.29-1.03-.07-.22-.6-.86-.67-.48l-.29.34c-.13-.25-.02-.88-.09-1.03-.11-.26-.49-.32-.6-.48-.22-.31-.44-1.01-.7-1.28-.35-.38-1.57-1.12-1.98-1.54-.15-.15-1.22-1.45-1.26-1.54-.13-.28.06-.46.08-.73l-.88.15c.02-.34.01-.78-.44-.73.2.78-.68.8-.05,1.57l-.17.93c-.64-.61-1.78-.81-2.48-1.19-.7-.39-2.11-2.07-2.61-.88-.28.2-1.01-.68-1.23-.86-.14-.12-.39-.13-.51-.23-.46-.41-.1-.98-1.4-.36l.22.59c-2.27-.02-4.47.53-6.69.86-2.04.3-2.43.14-4.45.95-1.29.52-4.13.21-5.13.91-.16.11-.18.41-.39.47-.15.05-2.87.16-3.05.14-.26-.03-.47-.35-.6-.35-.08,0-.3.23-.58.25-1.32.09-1.51.05-2.59-.51-.14-.07-.38.05-.51-.07-.32-.28-.27-1.32-.21-1.78-.33-.09-.35.13-.4.4-.1.5-.01,1.01-.04,1.5-1.13.23-2.23-.12-3.33-.23-1.75-.16-3.5-.48-5.23-.67-.66-.07-2.6-.68-2.14.46-.26.2-1.47-.6-1.72-.69-.89-.32-2.1-.66-3.03-.79l-.09-.42c-.29-.07-.36.26-.63.26-.46,0-1.32-.45-1.86-.41.11-.36,1.02,0,.88-.58-.71,0-1.49.07-2.13-.29l.15-.29h2.71l-.09-.45c-.13-.1-1.31-.12-1.56-.09-1.04.11-2.27.56-3.26.7-.66.09-1.25-.16-1.78-.16-3.09.03-4.95,1.94-7.77,2.06-.64.03-1.05.04-1.11-.72-.39-.09-.8,0-.73.5.01.1.45-.01.3.37-.98-.43-.88.05-1.27.3-.17.11-.49.06-.6.18-.06.06-.06.52-.46.63l.21.51c.43-.53,1.2-.03.93.42-.05.09-1.46.78-1.74.98-.2.14-.06.47-.45.35l-.14-.52c-.26-.21-1.53.63-1.88.78-.23.09-.56.02-.88.15-.42.17-.49.6-.67.73-.22.15-.67.1-.8.23-.05.05-.54.66-.7.84-.11.13-.89,1-.3,1.03l.45-.73c.43-.11.36.2.58.43.79-1.74,2.21-2.45,3.96-2.93l.07.29c-.29.22-.95.38-1.16.53-1.33.93-2.83,2.49-4.19,3.58-.32.26-1.2,1.2-1.47,1.32-.29.12-.22-.16-.19-.34.12-.68,1.13-1.39,1.58-1.94l-.22-.37c-.48.33-.7.28-1.24.15l.08-.44-.37.58c.33-.02.7.14.74.52-.01.65-2.2,1.63-.89,2.2-.64.67-1.34,1.3-1.98,1.98-.16.17-.29.5-.43.61-.23.17-.73-.14-.92.32-.06.15.2.38-.11.54l-.38-.58-.72.21c.01.62.68.34.72.37.36.26-.08,1.23-.36,1.46-.2.16-.49.13-.51.15-.04.04.14.37.09.59-.06.24-.36.4-.44.59-.24.53-.29,1.55.5,1.16.06.27-.21.39-.32.63-.16.34-.4,1.28-.55,1.47-.12.16-.54.11-.6.32-.08.26.22.44.25.61.1.56-.58.89-.76,1.23-.17.31-.16.76-.35,1.12-.23.44-1.02,1.33-1.14,1.67-.1.27.07.44.04.55,0,.02-.24.3-.26.32-.35.24-.28-.4-.43-.52l-.44.09c0-.55.36-.42.73-.29.12-.57-.15-.64-.58-.88-.18.56-.95.71-.74,1.51.05.18.45.06.46.61,0,.26-.39,1.47-.53,1.69-.21.34-.7.2-.51.89l-.58-.15c.08.54-.09.93-.59,1.17.06-.82.35-1.61.44-2.42ZM119.57,40.24c-.35-.72-1.24-.95-1.39-1.76.07-.07,1.8.52,1.9.81l-.03.2c-.41.04-.27.52-.49.76ZM118.58,50.33c-.23-.12-1.42-1.59-1.28-1.73l2.64,1.18c.07.77-.79.86-1.36.55ZM110.55,35.39c-.5-.1-1.05-.09-1.54-.15-.27-.03-.24.06-.22-.29l.93-.27.83.71ZM80.03,53.8c-.12,1.25-.72,2.64-.74,3.95l-.19.24c-.22-.2-.44-.26-.73-.29-.93-.1-4.91.46-5.5,1.11-.27.3-.14.79-.74.65l.29-.44c-.72-.14-1.29.36-1.89.5-.45.11-1.1-.26-1.63-.06-.09.9.72.43,1.28.47.39-.09.09.21-.06.23-.54.09-.97.06-1.51.32.05-1.31-.16-.55-.59-.36-.14.06-1.13.37-1.43.47-.67.23-3.12.49-3.75.33-.15-.04-.22-.43-.4-.52.32-.13.59-.43.89-.58.33-.15,1.53-.21,1.38-.82-.47.16-.97.14-1.43.33-.73.28-.78.35-1.61.59-.31.09-.76.84-1.24.96-.7.18-1.84.18-2.57.36-.58.14-1.14.66-1.79.55l-.07-.29c1.09-.6,2.31-.85,3.52-1.1.26-.7-.5-.13-.7-.11-1.36.16-1.35.31-2.55.82-.4.17-1.46.17-.57.75-.55.61-.75-.05-.83-.07-.61-.17-.58.19-.76.27-1,.47-2.04.75-3.1,1.04-.14-.61.16-1.28.15-1.83-.03-1.58-.56-3.43-.72-5.01-.04-.41-.01-.82-.02-1.23l.88.29c-1.04-3.14.65-2.52,2.45-3.64,1.18-.73,3.76-2.48,5.1-2.53.91-.04,1.9.34,2.64.3.57-.03,1.2-.06,1.25-.67,1.43.06,2.09,2.13,1.88,3.35-.1.56-.55,1.18-.51,1.83.01.23.24.39.26.69.09,1.06-.21,2.29,0,3.38.04.24.23.51.51.52.08-.02.5-1.34.52-1.53.14-1.02-.36-2.54-.16-3.35.03-.12.31-.13.45-.47.4-1.01-.36-2.55,1.18-2.5l.05-.67.53-.14c.04-.81-.89.25-1.17-.22.15-.41,1.5-.99,1.59-1.12.03-.05-.18-.26,0-.5.4-.53,2.46-1.66,3.12-1.88,1.01-.32.64.35,1.07.35.58-.25,1.48-.79,2.07-.88.6-.1.92.43,1.53.29l-.11-.52c.92-.71,1.61.13,2.4.5.25.12.5.11.74.22.27.12.65.21.76.27.04.02.47.91.61.19l-.44-.37.56.02c.53,1.23-.07,2.55-.13,3.72-.07,1.24.11,2.58-.01,3.81ZM78.13,59.02l-.96-.44-.51.58c-.56-.57-.68-.03-1.14.1-.42.12-.91.19-1.35.19l1.53-.89c.84-.1,2.32-.83,2.43.45ZM50.49,63.43c-.6.1-1.06.46-1.55.65-3.7,1.49-5.93,2.2-9.26,4.68-.23.17-1.41,1.1-1.53,1.09-.49-.04-.69-2.84-.82-3.4-.1-.4-.43-.8-.42-1.26h.73s-.15-1.67-.15-1.67c.75-.33,1.04-.32.89-1.27h1.03s-.14-.35-.14-.35l.44-.74-.31-.17,2.35-4.9.81,1.46c.89-.73,0-.79-.18-1.06-.11-.17-.04-.52-.18-.74-.23-.37-.52,0-.43-1.04.1-1.17.4-.74.92-1.13.2-.15.25-.38.49-.54.71-.47,2.75-.71,3.6-.59.24.03,2.32.74,2.39.85.21.76-.05,1.67.07,2.42.1.58.32,1.27.45,2.04.22,1.32.66,2.89.82,4.15.04.34-.04,1.12-.02,1.53ZM34.99,73.68c-.44.04-1.1.43-1.36.77-.24.3-.35,1.2-1.02,1-.14-.04-.76-.92-.8-1.12-.09-.41.02-.84-.06-1.26-.12-.57-.38-1.06-.53-1.53-.09-.28,0-.63-.03-.92l-.88.15c-.12-.47.35-.2.51-.43.14-.2.08-.6.36-.96.5-.64,1.6-1.43,2.21-2.05.28-.29.29-.33.65-.66.59-.53.89-1.3,1.1-2.06.53.17.27.48.33.76.13.57.29,1.05.46,1.6.39,1.24.85,2.45,1.35,3.65.07.36-.34.86-.58,1.13-.3.33-.87.9-1.2,1.22-.27.26-.63-.05-.52.72ZM48.8,47.06l.99-.63.48.27c-.47.18-.9.95-1.46.37ZM50.41,46.4l.96-.43c.52-.07,1.06-.25,1.57-.34.22-.04.29-.15.4.19-.92.22-2.01.86-2.93.59ZM61.41,45.96c.04.24-.19.16-.33.11-.45-.13-1.19-.36-1.28-.85l.6-.06.14-.67,1.83-.42c.71.75-1.28,1-1.4,1.52l.44.37ZM26.98,67.2c.12-.36.48-.69.52-.95.12-.83-.13-1.82.45-2.6.11-.15.36-.04.43-.11.06-.06.13-.77.33-.94l-.45-1c.54-1.1.38-2.87,1.32-3.75-.13.85-.09,1.71-.15,2.57-.05.74-.1,1.77-.18,2.46-.12,1.03-.75,2.24-.76,3.35-.27.84-.9.17-.96.88h.44c-.02.81-.51,1.48-1.17,1.91-.01-.57,0-1.26.18-1.8ZM25.77,67.09c.27.36-.58,3.11-1.02,2.64l1.02-2.64ZM23.29,72.6c.09-.14.33-.18.38-.27.1-.16.01-.78.41-.69.6.13-.16,1.45-.28,1.7-.02.04-.2.04-.23.16-.08.3.2.74-.29.63-.15-.49-.28-1.06.01-1.53ZM23.14,79.4c-.18-1.02-1.2-1.04-.75-2.33.63-.08.96.24.88.88l-.44-.15c-.05.8.82,1.04,1.17,1.61h-.86ZM25.61,78.13c-.04.12-.27.12-.29.21-.04.3.35.88.08,1.22-.36-.9-1.34-2.36-.97-3.31.14-.35.58-.56.46-1.02-.04-.15-.58-.05-.59-.37.25-.06.85-.08,1.03-.22.24-.19.18-1.2.73-1.1-.23.47.13.72.15,1.09.05.82-.35,2.68-.61,3.49ZM25.91,79.86l.88-.44c.05.42.16,1.13.33,1.5.19.4.68.53.69.99-.39-.05-2.1-1.85-1.91-2.05ZM28.55,84.55c-.65.05-.41-.56-.44-.58-.1-.06-.41.04-.67-.14-.48-.34-.76-1.62-1.38-1.99.09-.12.31-.31.43-.22.02.01.03.24.15.36.17.18.75.67.8.81.05.14-.11.39-.06.43.03.03.31,0,.5.16.12.1.78,1.05.67,1.17ZM30.66,88.96h-.71s-.21-1.61-.21-1.61c1.35-.03.31,1.29.44,1.47l.58-.29-.1.44ZM33.05,98.45s-.19.04-.23.15c-.17.49.05,1.07-.6.91l-.44-2.35c.68-.19,1.59.57,1.27,1.28ZM33.25,95.12l.15-.79c-.71-.27-.33-.7-.44-1.16-.04-.15-.3-.14-.36-.24-.03-.05.08-.88-.38-.52-.16.12-.06.59-.36.22-.2-.81-1-1.53.22-1.91.32.89.88,1.71,1.41,2.48.1.15.35.19.43.32.16.24-.35.56.59.57l.21,1.77c-1.08.06-.25-1.02-.59-1.61-.2-.04-.34.06-.45.21-.22.3.04.76-.43.67ZM33.1,90.13c0,.6.7.62.44,1.47-.71-.03-1.27-1.37-.44-1.47ZM34.72,101.13c-.19-.63-.19-1.32-.15-1.98.02-.29-.12-.42.29-.36-.46.73.89,2-.14,2.35ZM48.36,134.45c-.46-.21-.77-.75-1.32-.73l.15-.59s.33.14.39.2c.1.09.88,1.02.78,1.12ZM76.81,146.77l1.83-.29c.28-.01,1.2-.06,1.36.03.05.03.24.44.32.55-1.17-.14-2.34.01-3.52-.29ZM77.7,143.25c.68-.13,1.45-.2,2.05.15-.1.27-.87.16-1.1.14-.2-.02-.88-.07-.95-.29ZM82.9,147.22c-.3.02-.6.04-.8-.23l1.91-.22c-.14.27-.84.43-1.1.44ZM81.31,144.57c-.12-.03-.08-.28-.16-.28l-.37.13-.14-.67-.6-.06c.19-.56.52-.29.78-.34.58-.12,1.55-.31,2.11.1.05.04.03.44.33.23.02-.01-.02-.25.11-.29.62-.15,2.91.68,3.72.67-.47.21-1.36.46-1.85.51-.64.07-3.45.12-3.92,0ZM87.33,147.09c-.23.05-.29.26-.53-.1.27-.45.66-.22.93-.27.84-.18,1.22-.26,2.12-.2.22.01.4-.06.47.25-1.03.03-1.98.12-2.98.32ZM100.98,141.24c-.81.29-1.75.57-2.61.69-.08-.46.14-.22.36-.29,1.04-.33,2.03-.98,3.16-.88-.11.26-.66.39-.91.48ZM108.21,143.1c.6-.69,1.74-1.22,2.64-1.32l-2.64,1.32ZM107.18,138.7l1.42-1,.34.27c-.59.29-1.05.7-1.76.74ZM111.13,139.51c-.31.13-1.14-.2-1.6.07l2.66-1.52,3.94-2.88-1.17,1.4c-1.16.73-2.61,2.42-3.83,2.94ZM113.32,139.79c-.13.05-.35.21-.42.02.72-.38.69-1.13,1.24-1.69,1.55-1.6,2.75-2.53,4.27-4.38.12-.14.37-.21.43-.31.33-.5-.33-.37-.22-.66.59-.56.87-1.3,1.61-1.69.06.27-.06.44-.14.67-.63,1.77-2.44,4.8-3.72,6.18-.92,1-1.82,1.39-3.05,1.86ZM118.33,139.43c.14-.6.62-.99,1.17-1.17.19.21-.68,1.49-1.17,1.17ZM121.99,134.15c.65-1.42,1.39-2.88,2.34-4.11-.46,1.49-1.37,2.92-2.34,4.11ZM126.41,124.25c-.36,1.36-1.71,3.28-2.42,4.48-1.65,2.77-3.52,6.03-5.74,8.34-.15.16-.21.37-.5.31.68-.99,1.35-1.9,1.94-2.98.69-1.27,1.35-3.49,2.04-4.56.35-.54.93-.32.57-1.27.41.23.6.14.88-.22l-.73-.29,4.25-6.09c-.14.66-.12,1.67-.28,2.27ZM127.49,119.62l-.8.89c.24-.6.4-1.77,1.17-1.76.03.5-.53.24-.37.87ZM128.3,118.01c-.24.01-.33.07-.29-.22.05-.37.65-1.36,1.03-1.54l-.73,1.76ZM133.96,93.81c-.18.76-.85,2.11-.93,2.57-.08.39.3.63-.27,1.16l.31.81c.47-.32-.06-1.48.66-1.47l-.74,3.43.3.31c-.81.35-.45.74-.62,1.28-.18.56-.59,1.3-.77,1.87-.15.45.04,1.19-.51,1.47,0-1.39.69-2.71.99-4.07.07-.32,0-.64.07-.96,0-.05.56-.81.04-.55-.69.35-.51,2.03-.85,2.75-.38.79-.35,1.02-.58,1.98-.34,1.42-.23,1.14-.24,2.53-.01,1.54-.87,1.93-1.26,3-1.48,3.99-3.03,7.6-4.91,11.5-.09.18-.53.29-.29.98l-.45-.09c-.27.26-.19.89-.36,1.12-.11.14-.37.09-.47.18-.66.61-2.84,3.59-3.5,4.49-.13.17-.36.22-.5.38l.58.3c.04.2-.17.32-.29.44-.51.53-1.49.98-2.01,1.44-.68.59-1.33,1.43-2.12,2.07-.42.34-.84.69-1.3.97-.33-.43,1.72-1.78,1.39-2.35l-.74.59-.07-.22,2.49-3.23c.06-.18-.04-.29-.22-.22-.12.05-1.09,1.06-1.25,1.24-.74.85-2.2,2.69-2.7,3.59-.13.24.22,1-.67.3.02.71-.65.67-.3,1.32-1.15-.49-1.67.89-2.42,1.47-.95.73-3.66,1.37-4.85,1.61-.94.19-2.71-.12-2.7,1.18h.37c.26-.54.94.13,1.17-.88.27.75,1.06.08,1.47,0,.49-.08,1.04.01,1.53-.15,0,.22-.32.21-.4.34-.08.13-.01.37-.04.4-.02.02-.32-.19-.61-.12-1.15.27-2.82,1.17-4.01,1.58-3.5,1.19-7.07,2.21-10.63,3.16-.22.06-.37.31-.66.36-.47.09-4.49-.33-4.76-.51-.14-.09-.13-.34-.15-.36-.07-.06-.71.62-.87,0,.96-.47,2.02-.43,2.99-.6,3.53-.62,7.2-1.54,10.68-2.08.12-.02.25-.22.36-.23.25-.04.37.34.59.4.18.05,2.39-.98,2.5-1.19.1-.18.01-.49.03-.7h-.59s.07-.73.07-.73l-1.5.99c-.45-.11-1.05.44-1.31.45-.36.02-.95-.12-1.57.02-.12.03-.08.3-.17.3-.22-.01-.32-.23-.46-.26-.1-.02-1.8.47-1.87.53-.19.14.03.49-.17.62-.41.29-1.69.2-2.18.28-2.81.47-5.64,1.28-8.38,1.74-1.25.21-1.96-.04-3.09-.11-1.06-.06-.77.31-1.1.55-.1.07-1.97-.54-2.33.09l.1.37.49.29c-1-.02-2.01.03-3.01,0-.07,0-.26.27-.37-.14.77-.34,1.82.35,2.34-.37,0-.61-2.66-.25-3.13-.2-.58.05-.99.48-1.56-.02v.44c-.7-.27-1.19-.03-1.84.01-.24.02-.53-.16-.71-.12-.19.04-.27.34-.53.25v-.59c-.2.06-.28.27-.52.3-.19.02-2.08-.15-2.21-.21-.17-.08-.15-.35-.31-.39-.71-.18-1.63.18-1.95-.88h-.29c0,.47-.56.54-.93.44-.17-.05-.16-.38-.31-.4-.16-.02-.53.12-.97.04-1.14-.19-2.6-1.02-3.46-1.22-.24-.05-1.08.09-1.43-.03l-.31-.56c-.54.2-1.34.11-1.87-.08-.15-.05-1.77-.95-1.84-1.02-.14-.14-.2-.93-.34-1.17-.25-.45-.93-.91-1.24-1.74-.07-.19.08-.41.07-.42-.03-.03-.31,0-.5-.16-.48-.41-1.28-1.39-1.76-1.91-.15-.16-.99-.56-.3-.73l.96.73-.06-.74c-.57-.08-.55-.26-.84-.49-.25-.2-.53.09-.44-.66-.61-.23-.76.31-1.3-.25-.23-.25-.43-.88-.48-.91-.12-.07-.36.02-.52-.06-.06-.03-.9-.85-.93-.91-.13-.23-.16-.41-.14-.67-.26-.06-.1.25-.15.29-.25.19-.73-.74-1.03-.83l.3-.78c-.65-.26-.46.72-.8.58-.39-.47-1.02-.44-.66-1.17l-.73.29c.09-.84-.88-1.19-1-1.87-.04-.24.15-.45.09-.59-.02-.05-.6-.44-.71-.69l.44-.51-.57-.02-.17-.57.93.28.4-.72.51.15.07-.29c-.83-.61-.64-.18-1.24-.13-.1,0-1.33-.06-1.39-.09-.09-.04-.48-.46-.44-.51l.44-.3-.58.14c-.09-.7-.86-.83-.44-1.61.07-.06.6.66.58.08-.27-.43-.71-.14-1.03-.42-.38-.34-.45-.93-.43-1.41l-.29.15c-.05-.07.12-1.06.18-1.21.22-.55.69-.72.5-1.63-.3-1.37-1.85-3.69-2.4-5.21-.08-.23-.04-.52-.11-.77-.3-.96-.87-1.65-.37-2.64l-.44.15.45-.66c-.51-.6-.37-.79-.31-1.53l-.43-.08.95-.52c.29-.94.36-1.64.24-2.62l.56-.17.1,2.13-.44.21-.1.44.73-.29c-.05.5.05.92.44,1.25l-.58.23v.43s.56.02.56.02c.29,1.28.93,2.57.74,3.86.64.13.72.46.3.96l.44-.15c-.24.6.37.63.43.82.07.23-.23.64-.12.93,1.03.02.66.8.79,1.04.15.27.88.42.52,1.17l.44-.15c-.16.64.45.71.71,1.27.22.47.15.97.55,1.37l-.53,1.47c.48.15.53-.87.88-.52.16.16.12.46.23.65.28.47.88.85,1,1.35.09.36-.21.84-.04,1.13.04.06.35.15.49.31.43.51.81,1.11,1.3,1.56.19.17.69.29.92.55.97,1.11.84.83,1.98,1.45.33.18.36.64.86.55l-.3.22.3.6c.26.17.43-.25.64-.22.2.03.88.74.53,1.01l1.13.34.49.98.22-.29c.49.46,1.28.93,1.4,1.61l.59-.22c.53-.58-.45-1.15-.84-1.5-.1-.09-.43-.09-.12-.33.37.36,1.1.25.96.88l.5-.14c.38.78.88.04,1.69.67.31.24.27.63.39.66.25.06.6-.14.85-.12.34.03.79.55,1.26.4l-.29.88c.46-.48,1.57.03,1.83.59l.51-.29c-.04.99,2.03,1.28,2.65.81v-.51c.3-.15.68.24.8.24.1,0,.28-.24.58-.25.45-.02,2.41.59,2.72.3l-.42-.66c-.9.01-2.01.04-2.89-.07-.68-.08-1.38-.64-2.26-.3-.12-.47.36-.2.52-.43.13-.2,0-.62.31-.73.07-.02,1.32.2,1.47.25.27.1.24.32.35.38.09.06.63,0,.81.24.44.02.38-.6.36-.88.41.22.81.11,1.21.17.41.07.79.51,1.37.16l.8,1.28.16-.27s.23.1.35.09c2.01-.21,4.28,0,6.19-.21.62-.06,2.12-.36,2.59-.32.2.02.42.27.77.28.24,0,.32-.6.66-.22.03.21-.15.57.21.49.51-.11.18-.35.44-.58l1.1.14-.29.58c.76.35,1.67-1.38,1.77-.16.2.06.41,0,.61.05,1.31.4,4.32.24,5.9.26.72.01,1.19-.12,1.64-.12.35,0,.53.53,1.15-.17l-.15-.29c-.69.36-.6.14-1.05.05-.28-.05-.59.2-.78-.35,1.15-.06,2.3-.36,3.45-.44.44-.03.08.27.07.44.82-.06,1.77.01,2.56-.08.55-.06,1.08-.23,1.63-.35,1.22-.26,4-.81,5.01-1.29.37-.17.24-.52.43-.63.1-.06,1.98-.68,2.18-.72.16-.03.34,0,.5,0-.02.14-.18.28-.3.35-1.02.59-2.41.92-3.48,1.36-.15.06-.14.27-.29.33-.31.12-1.01.17-1.21.25-.14.06-.39.28-.15.43.23.13,1.65.12,1.95.04.26-.07.46-.37.7-.47.23-.1,1.11-.26,1.17-.3.23-.14.26-.76,1.02-.52l-.15-.44.88.14-.09-.44.82-.22-.29.81c.45.44,2.96-1.96,3.47-2.03.18-.03.36.29.7.28.45-.02,2.33-1.23,2.29-1.76.55.22,1.11-.06,1.46-.52-.09-.16-.46-.05-.6,0-.22.07-.39.58-.57.37-.43-.5,1.48-.79,1.58-.84.25-.12,1.73-1.18,1.95-1.43.34-.37.26-.78.29-.81.05-.05.67.04.92-.04.16-.05.26-.25.41-.32.2-.1.49-.08.65-.23.53-.51-.79-.07-.81-.22.99-.33.79-.73,1.14-1.35.92-1.62,2.21-3.11,3.23-4.69.66-1.03,1.52-3.07,2.22-3.91.13-.16.56-.14.6-.32.04-.17-.23-.32-.27-.47-.11-.46.53-1.44,1-1.07l.22-1.33.16-.12c.18.03.36.11.55.1.81-.07,2-3.47,2.45-4.22l.64.29c.53-.16,2.49-5.7,2.83-6.58.27-.71.75-1.38.96-2.13.1-.37-.04-.84.12-1.15.08-.15.85-1,.67-.25ZM36.49,100.02c-.19-.54.58-1.39.66-.63.11,1.06.43,1.75.65,2.78-.36-.1-.28-.55-.43-.78-.11-.16-.37-.19-.49-.43-.23-.48.3-.61-.39-.94ZM36.9,102.55c.05.59-.13,1.52-.07,1.9.03.23.83.73.16,1.24-.62-.36-.35-.64-.44-1.03-.25-1.08-.18-1.28-.21-2.27-.02-.5-.26-1.01-.16-1.54.4-.48.7,1.56.71,1.71ZM41.76,115.22c.24.03.09-.56.44-.29.03.02-.09.48.5.28.4-.13.13-1.31-.35-1.38.66-.42,1.23-1.44,1.94-1.72.14-.06,2.4-.57,2.53-.57.55.03.73.66,1.29.58.26-.04,1.74-1.48,2.01-1.29l.37.44,1.1-.45c-.74,1.31.39,2.16.3,3.37l1.32-.15-.29.59.29-.07.45,2.46c.47.26.11.71.73.92l-.07.23c-.42.1-.45.4-.38.81.05.29.54.21.16.95l.59.15c-.5.72-.09.8-.03,1.28.07.6-.18,1.44.76,1.66-.02.41-.82.09-.88.15l-.1.44-2.03.29c-.8-.61-2.69-1.41-3.31-2.13-.51-.59-.8-1.17-1.1-1.83-.14-.31-.68-.47-.74-1.02.03-.69.85-.72,1.22-.95.05-.03.02-.22.03-.23.11-.07.32.41.63.41.25,0,.61-.23.93-.25.58-.03,1.37.2,2.01.07.11-.02.94-.28.99-.3.29-.19.03-.55,0-.81-.07-.05-1.34.44-1.71.43-.35,0-.51-.27-.85-.3-.51-.04-1.14.52-1.47.16-.2-.22-.2-.81-.66-.74l-.02.56-.71.17.15-1.03-.51.29c-.26-.32.44-.91.35-1.24-.04-.16-.34-.17-.39-.26-.09-.16,0-.47-.17-.78-.06-.11-1.03-1.03-1.14-1.06-.66-.2-1.43.18-2.1-.03.11.58-.64.49-.44,1.17.64-.04,1.49-.61,2.1-.42.3.09.3.42.44.52.29.22.77.28.93.7-.25.41-.37,1.7-.76,1.84l-.15-.29-.36.38.28.42-.3.16-.5-.23-.22.73c.81-.71,1.63.02.88.73v-.44s-1.47.07-1.47.07l.37.81c-.9-.42-1.63-.97-2.06-1.9-.1-.21,0-.52-.1-.7-.36-.66-1.21-1.68-1.53-2.5-.07-.19-.38-1.1.1-.91v.59s.44-.15.44-.15c-.22.8.33.98.3,1.61ZM60.01,129.37c.2-.07.86.18.82-.35l.29.22-1.1,1.35c-.71-.65-1.98-.42-2.37-1.36-.03-.72,1.36-.57,1.85-.51l-.29,1.03c.6.21.59-.3.8-.38ZM61.06,126.37c-.68-.27-1.48-.2-2.15-.35-.78-.18-1.4-.69-2.24-.66-.19-.13-.33-1.38-.5-1.73-.14-.29-.45-.44-.55-.69-.14-.34-.06-1.52.45-1.49.3.02,1.2.51,1.5.34.05-.03-.02-.27.24-.27.2,0,1.07.16,1.27.22.27.08.24.3.39.36.31.13.99.08,1.17.2.08.05.09.27.18.33.45.3.76-.34,1.24-.22l.45,2.63-1.46,1.32ZM63.73,124.72c.02.09-.26,1.02.17.63.22-.21-.23-1.7.36-2.22.05-.04.62-.12.65-.1.33.21.31,1.66,1.05,1.44.14-.94-.3-1.43-.88-2.05l1.76.15c0,.32-.51.04-.71.17-.14.09-.25.62.06.7.4.1,1.98-.52,2.5-.58.48-.05.25.3.55.3l1.55-.31c-.22.68.37.59.52.88.26.52-.03,1-.22,1.47l-.51-.44-.37.88-.44-.15.29.73c-.59-.3-1.36.21-.95.88.18.3.79.12.66.58-1.05-.12-2.1-.28-3.14-.45-.56-.09-1.43-.1-1.76-.41l-.94.11c-.09-.16-.13-.33-.15-.51-.06-.49-.19-1.2-.31-1.72-.04-.15-.35-.14-.42-.34-.06-.16-.06-1.25,0-1.35l.41-.17c.25.61-.3.76-.3.81-.01.33.51.79.57,1.06ZM77.92,126.23c.07.02.23-.84.66-.74-.31-.36-.35-.7-.29-1.17.64-.3,1.26.16,1.69.16.29,0,.54-.26.87-.32,1.16-.21,2.08-.08,3.2.2,1.58.4.08,1.65,1.44,2.25l-.18,1.58-.57.24v.51c-.46.36-.71-.02-.98-.04-.82-.04-1.35-.07-2.17-.16-.52-.05-.3.34-.89-.43-2.31.24-4.64-.01-6.95-.18l.29-.37c-.23-.35-.63.03-.8-.37-.19-.44-.27-1.41-.55-1.96-.11-.22-.38-.22-.41-.35-.04-.15-.2-1.9.15-1.66,0,.26.22.36.37.51.48.44.61.62.88,1.26.68-.7,1.07.22,1.32.15.15-.04.18-.39.24-.42.04-.03.29.14.46.1.6-.14,1.62-.83,1.84.13.11.46-.19.91.4,1.07ZM88.4,125.35c1.17.06,2.3,1.48,3.02-.13l1.38-.02-.44.73.72.02c.1.56.15,1.28.82,1.45.32-.07.19-1.39.4-1.8.18-.36.95-.46.63-.99l-.8.29c.01-1.28.86-.9,1.51-1.08,1.54-.44,2.75-1.46,4.54-.92.19.06.36.2.53.28.06,1.01-.02,1.54-.52,2.43-.09.16-.34.18-.34.26,0,.15.17.35.14.56-.09.72-.27,1.19-.98,1.37-1.48.38-3.16.4-4.65.63-1.73.27-3.23.47-4.99.43-.25,0-.5.15-.74.16-.16,0-1.04-.76-1.07-.99-.03-.17.72-.84.42-1.36-.5,0-.84.4-.88.88-.26,0-.17-.38-.44-.51-.17-.09-.4-.07-.59-.07v-1.02s.42-.03.42-.03l.11-.42c.96-.21,1.2.47,1.97.6l-.15-.73ZM98.67,128.43l-1.28.55-1.5.03,2.79-.58ZM103.51,122.27c.13.14,1.25-.68,1.4-.73.37-.12.15.35.23.42l1.1.15.35,3.88-.23.22c-1.26-.03-2.39.6-3.62.74-.25-.08-.5-.88-.6-1.17-.12-.33-.67-1.9-.67-2.12,0-.11-.03-.26.08-.22.45.41,1.29.81,1.25-.15-.88-.1-1.51-.53-1.47-1.47,1.54-.38,2.79-1.72,4.25-2.2-.66.38-.58,1.18-1.09,1.62-.49.42-1.04.11-.96,1.02ZM132.59,93.18c.04-.21.44-.9.7-.99.03.66-.37,1.21-.53,1.71-.67,2.09-1.38,4.24-2.32,6.31-.11.25-.48.62-.37,1.08-.36.05-.33-.05-.28-.36.1-.67.51-1.14.68-1.67.5-1.53.95-3.75,1.77-5.13.17-.28.42-.3.46-.35.06-.09-.14-.37-.1-.6ZM134.18,83.9c.12.69.53-.17.73-.15-.02.64-.38,1.5-.43,2.07-.04.44.14.75.12,1.02-.02.29-.51.86-.28,1.39-.63.16-.95-.34-1.47-.51-2.53-.84-4.05-.23-6.5-.27-.28,0-.59-.23-.88-.2-.54.05-2.15,1.76-2.75,2.22-1.11.85-2.62,1.1-2.33,2.94.04.28.27.52.29.75.02.37-.36.61-.44,1.02-.05.26-.13.54.21.5.73-.08.67-.76.9-1.31.17-.41.3-.87.43-1.18.2-.45.63-.85.82-1.32l.71.13-.44-.37.66-.66c-.09.47.34,1.22.33,1.51,0,.33-.7,1.56-.55,1.71.69-.09.92-1.22.85-1.8-.07-.57-.11-.86.14-1.52.21-.56.7-.73.99-1.22l.07.59c.91-.2,1.76-.1,2.68.03.19.03,1.46.55.92-.33-.3-.49-1.31,0-1.25-.58.38.13.81.11,1.18.21.35.1,2.15.93,2.4,1.12.25.18.18.5.32.59.19.13.57.06.75.17.22.14.06.59.77.25.08.08-.83,1.64-.95,1.91-1.12,2.56-2.03,5.23-3.02,7.84-.22.58-.58,2.05-.92,2.53-.14.19-.7.5-.83.86l.29.36c-1.08-.17-.8.39-1.11.87-.13.21-.35.33-.48.55-1.43,2.4-2.64,4.81-4.57,6.88l-.58-.1c-.09-.31.17-.61.11-.91-.06-.32-.63-1.01-.93-.55-.1.15-.02.45-.1.56-.05.07-.68.15-.78.47-.18-1.7-3.22-2.24-3.3-.29.38.03.42-.36.81-.44.28-.05.86-.04,1.14.03.56.13.56.63.9.86.34.22,1,.39,1.39.74-.31.59-.27,1.36-.47,1.92-.11.3-.47.6-.51.81-.04.23.12.44.06.77-.2,1.01-2.18,3.99-3.17,4.33-.37.13-.51-.01-.87-.07l.59.44c-.06.48-.74.02-.88.15.38,1.1-.48.74-1.07.91-.43.13-1.14,1.05-1.72,1l.29.58c-.37.02-.68-.23-1.07-.12-.09.03-1,.99-.98.34,0-.15.7-.29.58-.66-1.36.28-1.46,1.46-2.47-.24-.32-.53-1.13-2.37-1.19-2.93-.05-.47.18-1.42.48-1.77.21-.25.88-.31.83-.78-.38.22-1.21.1-1.46.21-.28.13-.38.58-.48.63-.16.09-.46,0-.69.11-1.65.82-3.09,2.17-4.84,2.72v.57c-.59-.4-.7.23-1.12.3-.53.08-1.3-.16-2.01.03-.51.14-1.21.74-1.75.89-.54.15-1.07.1-1.65.26-1.77.47-2.21,1.14-4.25,1.32-.47.04-.96.23-1.47.14l-.31-.59-.07.58c-.35-.2-.8.06-1.07-.02-.34-.09-.28-.73-1.04-.67-1.17.09-.6-.13-.93-.19-.26-.05-.55.11-.8.07-1.55-.25-2.4-.68-4.14-.49-1.04.12-.72.3-1.78.13-1.25-.2-3.39,1.09-3.79,1.03-.06,0-.32-.58-.97-.3.46-1.01-1.08-1.42-1.72-1.87-.72-.21-2.58-.4-3.33-.33-.33.03-.58.34-1.04.31-.49-.03-.8-.61-1.38-.69-.77-.1-1.66-.06-2.43-.09-.6-.02-1.35,0-1.39-.64-.59.14-.97-.43-.15-.35.17-.73-1.97-.42-2.05-.28v.42s.58.3.58.3c-.48-.02-1.39-.18-1.47-.73-.51.58-.81-.04-1.31-.08-.33-.03-.69.65-.87-.17l.21-.33c.7.03,1.7.75,2.37.47.22-.09.22-.04.19-.33-.42,0-.74-.34-1.11-.43-.52-.13-1.4-.09-2.01-.3-.17-.06-.14-.28-.26-.35-.19-.11-.44-.07-.58-.16-.06-.04-.56-1.07-.65-1.26-.09-.18-.05-.5-.1-.56-.05-.05-.42,0-.65-.15-.09-.06-.59-1.04-.61-1.14-.06-.38.53-1.12.18-1.81-.04-.08-1.27-.68-1.34-.69-.22-.03-.52.24-.71-.03-.56-.71-.15-1-.08-1.55.05-.36-.07-.86,0-1.14.03-.12.51-.08.29-.38-.01-.02-.2.02-.24-.04-.14-.2.07-.8-.41-.99l-.51.29c-.3-.66.02-1.24,0-1.81-.01-.24-.25-1.48-.32-1.75-.05-.2-.27-.62-.48-.64-.9.15-.89.74.07.69.02.36-.34.56-.3.94.03.22.27.38.29.6.03.26-.17.63-.15,1.02.02.51.31.87.47,1.3.06.15.21.14-.02.32-.4.24-.85-.09-1.22-.05-.37.05-.74.53-1.06.56-.57.05-2.83-.45-3.03-.41-.15.03-.36.23-.61.29-1.46.36-3.01.29-4.13,1.44-.13-.61-.79-.15-.22.22l-.44.22v-1.03s-.44.15-.44.15c-.08-.68-.38-1.31-.51-1.98-.07-.39.02-1.03-.12-1.58-.13-.51-.6-.74-.25-1.58l.88.29v-.37c-.47-.17-.42-.79-.6-1.27-.05-.13-.24-.12-.27-.22-.06-.24.06-.55-.07-.78h-.66c-.1-.42.48-.29.45-.64-.04-.35-.35-.54-.4-.77-.06-.29.18-.83-.19-1.22h.66c.46-.29-.42-.58.17-.86.33-.17.76.14.99.13.08,0,.06-.21.2-.28.13-.07.37.03.55-.16.09-.1.27-.81.22-.88-.43-.14-.42.59-.62.7-.05.03-.71.1-.85.11-.19,0-.23.16-.15-.15.1-.4,1.24-1.41,1.57-1.51.55-.17,2.11.13,2.25.85.35-.62,3.42.09,3.22-.8-.79-.65-2.02-.16-2.82-.25-.57-.06-1.5-.67-2.23-.57-.3.04-.37.31-.53.37-.21.09-.84.03-1.26.27-.38.21-1.45,1.91-1.66,1.71.03-.54-.51-1.15-.44-1.67.01-.09.47-.12.29-.53l-.59.15c.27-.57-.05-.95-.13-1.4-.08-.42.13-.88-.31-1.17.61-.12.15-.88-.08-.51-.13.21.08.54-.36.44-.04-.84-.4-1.53-.74-2.27.28-.38.75.03,1.18-.22-.31-.76.41-1.07-.65-1.16-.27.05-.18.73-.6.72-.11,0-.05-.2-.12-.25-.09-.06-.7-.07-.39-.34.03-.02.27.04.39-.04.14-.09.36-.71.62-.93.19-.17.51-.17.61-.3.48-.64-.36-.66-.16-.93.36.02.52-.42.73-.51,1.06-.49,2.55.68,3.44-.23l.15.31c.24-.02.59-.32.81-.23.07.03,1.02.86,1.1.95.17.19.18.39.31.58.08.12.31.13.35.26.05.18.02.7,0,.92.31.19,0,.84.66.73.58-.43-.29-.58-.22-1.02.5.11.44-.3.73-.44l.18,1.58c.46.19.83.18,1.29.03.17.17-.58.96-.58,1.1,0,.23.17.19.36.07.52-.31.76-.84,1.54-.51.99.43.18,1.32.6,1.89.14.19,1.05.72,1.31.92l.14,2.68c-.7-.72-1.02-1.42-2.04-.65-.52.39-.43.48-.3,1.09.59.15.5-.52.95-.59.65-.11.55.34.69.43.1.06.34-.2.49.02.03.04.23.9.23.95.03.74-.19.7.05,1.68.08.32-.32.48.43.57.92-.64.06-.69-.03-.94-.21-.61.04-1.04.56-1.31v-.21c-.81-.28-.25-1.5-.28-2.13-.04-.71-.59-1.8-1.03-2.36-.21-.27-.63-.36-.75-.72-.11-.32.05-.54,0-.86-.15-.74-1.1-.95-1.66-1.28-.2-.12-.34-.44-.52-.52-.25-.11-.5.13-.65-.06-.45-.59-.47-1.71-.65-1.97-.11-.15-.41-.05-.58-.33-.13-.22-.15-.69-.31-1.02-.13-.26-.39-.34-.44-.46-.07-.18.07-.55-.14-.71l-.5-.04-.6.57-1.15-1c-.55.04-.49.67-.64.72-.77.23-1.34-.2-1.85-.11-.37.07-.64.3-.96.37-.52.12-2.7.35-2.8.87-.06.27.27.61-.01.87l-1.11.36c-.31-.49-.37-1.07-.23-1.62-.52-.21-.48.51-.8.44-.22-.41-1.17-.95-1.35-1.22-.51-.73-1.06-1.98-1.47-2.86-.07-.16-.25-.15-.32-.3-.35-.76.04-.84.57-1.28-.54-.63-.39.34-.88.22-.09-.4-.31-.74-.4-1.14-.2-.87-.12-1.77-.18-2.58,0-.11-.27-.02-.31-.3-.09-.62.17-.12.45-.45l-.43-1.03.29-.14c-.85-1.04.27-2.77.29-3.68,0-.39-.44-.59-.15-1.08.68.17.69,1.67.75,1.74.04.04.32.02.48.17.74.66.58,1.97,1.18,2.78.28.33.8,0,1.19.12.27.09.14.39.42.32.43-.17.91-1.26,1.26-1.53.23-.18.56-.17.72-.3.17-.14.18-.47.36-.67.24-.28.88-.44,1.21-.77.95-.93,1.37-1.26,2.38-2.09.43-.36.73-1.4,1.48-.94.02-.28-.08-.63.08-.88.18-.29,1.74-1.77,2.1-2.05.13-.1.47-.44.61-.23-.42.29-.7.84-1.04,1.16-.61.59-.46.05-.96,1.1-.07.15-.29.26-.33.4-.25.85,1.42.4,1.15.2l-.59-.22c.87-.59,1.41-1.5,2.2-2.2.99-.9,4.14-3.36,5.25-3.85.11-.05,1.16-.37,1.21-.33-.29.44-.54,1.03-1.16,1.04v.43c.3.33,2.69-1.84,3.28-1.77l.3.31c.62-.48,1.68-.53,2.28-.82.2-.1.3-.41.55-.48.4-.12.94.03,1.4-.06.33-.07,1.11-.42,1.64-.56,1.12-.32,3.53-1.28,4.56-1.03.21.05.46.03.51.3-.4,0-.69.26-1.1.3-.48.05-.9-.17-1.16-.15-.09,0-1.21.56-1.66.68-.3.08-.96-.21-.92.57.21.69,2.06-.32,2.43-.37.33-.04.67.16,1.12.12,1.3-.12,5.32-1.96,6.32-1.73.11.02.09.26.2.29.24.06,1.39,0,1.49-.17l.02-.57c.79.24,1.17-.24,1.72-.4.44-.13,2.02-.61,2.33-.62.39,0,.61.29.86.28.33,0,.59-.56,1.31-.44.53.09.69.85,1.25.88l-.44-1.03c.72-.11,1.47-.23,2.13-.58.14-.08,1.3-.86,1.35-.92.08-.09.38-1.06.33-1.14-.15-.05-.49.36-.43-.07.15-1.11.62-2.18.72-3.25.02-.21-.18-.54-.12-.62.03-.05.41-.13.58-.38.45-.65.26-2.27.29-3.09.02-.55.22-1.05,0-1.69.34.09-.09.62.51.44.05-.02.08-.3.15-.3.42,0,1.31.51,2.2.46.78-.05,1.22-.67,2.08-.85.27-.06,1.26-.22,1.34.06l-1.19,8.45-.69,1.51.73.07.14.67c.94-.02,1.96.18,2.86.22,5.96.21,12.04.34,17.49,2.75l1.94.46.02-.65c-.62-.2-1.43-.37-2.02-.63-.64-.29-1.16-.87-1.92-1.03-.3-.06-.6.1-.77.04-.26-.09-.53-.46-1.13-.61-3.67-.95-8.13-.68-11.84-1.59l-4.04-.22c-.13-1.08.08-.69.4-.91.58-.41-.26-.73-.26-.78,0-.35.65-1.27.45-1.82h.59c-.09-.31-.29-.81-.27-1.11.01-.25.23-.47.26-.74.15-1.4.31-2.81.48-4.21.14-.53.58-.11.85-.47l-.58-.23c-.09-1.2.59-.69,1.13-1.06,1.28-.88.6-.39,1.99-.7.1-.02.1-.24.22-.28,1.68-.51,2.88-.67,4.66-.61.55.02,1.79.55,1.39-.43.32-.25,2.24.54,2.67.74.15.07.18.31.37.4.35.17.75,0,1.07.24.12.09.9,1.17,1.01,1.35.19.33.15.81.39,1.08.3.35.84.14.95.66.24,1.08-1.03.5-.71,1.67l.41.1.14.27c-.8,1.1-1.33,2.4-1.45,3.76.57.03.45-.74.66-1.04h.36c.05-.46-.17-1.08.22-1.45.18.32-.02,2.16.44,2.19.59.05.59-2.07.94-2.55.12-.17.42-.06.45-.09.05-.04-.16-.46-.14-.65.02-.33.32-.56.37-.82.06-.26.1-1.32.21-1.46,1.05,1,1.47-.89,1.9-1.1.36-.18.92-.03,1.32-.07.04.03-.45.72.15.59v-.59c1.08-.33,2.04.91,2.65,1.1.37.12,1.14-.33,1.02.51l.58-.23c.44.4.71.97,1.1,1.41.19.22.49.3.67.5.25.28.46,1,1.02,1.12-.83,1.61-.72,3.44-.73,5.2,0,.34.15.64.14,1-.03.92-.59,1.49-.87,2.3.34.33,1.14-1.33,1.25-1.61.2-.56.48-1.7.62-2.32.15-.65.18-2.09.41-2.53.21-.39.32.28.45.3,1.25.24-.61-1.8.07-2.36.66-.07.99,1.07,1.55,1.01.14-.02.16-.35.24-.39.16-.1,1.04.12,1.26.22.21.09.13.3.25.34.31.1.26-.32.21-.48-.06-.2-.82-.47-.73-.84.95.13,1.79.81,2.33,1.57-.07.64,0,2.93.3,3.36.27.38,2.45-.27,2.94.57-.23.26-.65.55-.71.92-.02.14.09,1.64.12,1.88.03.25.19,1.05.59.95.02-.93-.52-1.47-.16-2.44.08-.2-.05-.25.31-.2l.29,3.23-.51-.44c-.39.5.44.86.48,1.12.12.74.33,3.01.31,3.78-.02.71-.34,1.93-.93.86l-.52.18c.47.56.48.81,1.32.66.19.67-.43.89-.44,1.47-.52-.28-1.02,0-1.47-.06-1.36-.18-2.49-1.4-3.52-2.06-.36-.23-1.3-.24-1.75-.53l.15-.58c-.78,0-2.03-.82-2.73-.88-.46-.04-.6.32-1.02.18-.22-.08-.21-.31-.3-.31-.99-.03-.56-.28-1.04-.42-1.2-.35-1.93.07-3.11-.85-.13-.1-.28-.5-.38-.5-.05,0-.21.3-.42.27-.12-.02-1.23-.95-1.27-.35.28.21.68.34,1.01.47.36.14.56-.14.45.48l-.58.16c.14.49.52.12.8.15.94.09,1.48.61,1.94.7.29.06.57-.19.96-.09.66.17,1.78.93,2.46,1.22,2.03.89,4.15,1.73,6.2,2.75.56.28,1.37.56,1.83.89.09.07.16.38.26.39.04,0,.39-.43.66-.29.24.56-.73.48-.22.88.43.09.65-.49,1-.63.32-.13,1.06.14,1.41.27.59.23,1.4.68,2.04.9.47.16,1.68.32,1.99.51.27.17.22.46.39.64.27.28,1.52.28,1.7-.07.15-.3-.32-.4-.17-.88.11-.35.54-.59.74-.89.27-.42.19-1.05.82-1.16-.09.41.23.81.27,1.14.14,1.22-.26,3.65-.4,4.97-.14,1.35-.22,2.94-.49,4.35-.3,1.54-1.14,2.96-1.57,4.45ZM131.67,89.1c-.76.08-1.31-.23-1.76-.81.07-.15.42-.09.55-.03.04.02.04.24.13.25.24.03.52-.26.79-.09l.29.67ZM42.2,88.22c.74-.09.68.35.93.68.08.11.33.16.39.27.06.13.06.47-.22.36-.25-.09-1.31-1.13-1.1-1.32ZM136.22,90.57c-.29.91-.32,1.79-.44,2.72-.03.2-.07.43-.29.22-.25-.56.02-1.03.1-1.58.06-.43-.17-1.23.63-1.35ZM135.86,84.99c-.6-.59.17-1.34.42-1.92.06-.14.19-1.37.53-1.01-.1,1.03-.33,2.04-.95,2.93ZM136.45,100.4c-.17.91-.38,1.89-.6,2.79-.09.38-.2,1.09-.52,1.32l.43-3.16-.29-.15-.15.15-.29-.29c.2-.4.62-.01.81-.21.33-.35.01-1,.44-1.04.28.19.21.31.16.59ZM136.66,98.79l-.45-.22-.11-.27c.41-.47.22-1.28.85-1.57l-.29,2.05ZM137.57,94.19c-.14.66-.25,1.32-.47,1.96-.76-.61.31-1.75.37-2.49.35.24.15.29.1.54ZM138.27,89.76l-.5,1.4c-.32-.53.17-1.43.3-2.06.06-.31-.16-1.26.36-1.17l-.15,1.83ZM140.49,66c-.5,3.14-.88,6.38-1.31,9.54-.12.88-.05,2.29-.22,3.03-.18.76-.99,1.39-.89,2.31h-.72s-.24.73-.24.73c-.47-.16-.64-.19-1.02.15-.01-.16,0-.32.04-.47.41-1.37.92-4.23,1.66-5.39.1-.15.36-.19.43-.3.21-.32-.05-.64-.03-.94.03-.37.55-.85-.12-.97-.41.67-.05,1.37-.95,1.76-.05-.56.74-4.1,1.1-4.11l.29.29c.33-.22.04-.79.51-.73l-.07-.29h-.66c-.11-.11.25-.89-.29-.73l-.08.57-.8,1.33.15-5.28.29.5h.3s-.36-2.56-.36-2.56c-.38-.54-.6-1.08-.52-1.76.1-.11.63.24.74.36.32.38.16,1.15.66.96.22-.09.21-.24.17-.45-.1-.5-1.27-2.28-.97-2.63.58-.03.68.72.93.98.6.65,1.08.31,1.35.47.09.05,1.13,1.12,1.17,1.19.28.61-.39,1.76-.5,2.43ZM141.98,61.9c-.04.23.21.64.11.94l-.57-.17c-.25-.31.46-1.57.64-1.59.59-.07-.18.78-.19.82Z"/>
  <path d="M127.71,43.76c-.17-.05-.5.08-.67-.14.08-.4.08-.77.08-1.18.48.35.5.72.59,1.32Z"/>
  <path d="M61.08,147.33c.11-.11.1-.36.26-.39.06-.01.63.12.7.16.34.18.15.7.47.56.16-.07.65-.89.51-1.03-.81.09-1.48-.11-2.2-.44v.92c.09.07.17.15.26.22Z"/>
  <path d="M65.37,147.65c-.88.35-1.15-.54-2.05-.15v-.59c.46-.21.92.24,1.13.27.23.03.84-.75.92.46Z"/>
  <path d="M146.34,65.18c-.67-.13-1.38-.42-1.32-1.17.36-.21,1.48,1.03,1.32,1.17Z"/>
  <path class="st0" d="M43.22,91.45c.31.19,0,.84.66.73.58-.43-.29-.58-.22-1.02.5.11.44-.3.73-.44l.18,1.58c.46.19.83.18,1.29.03.17.17-.58.96-.58,1.1,0,.23.17.19.36.07.52-.31.76-.84,1.54-.51.99.43.18,1.32.6,1.89.14.19,1.05.72,1.31.92l.14,2.68c-.7-.72-1.02-1.42-2.04-.65-.52.39-.43.48-.3,1.09.59.15.5-.52.95-.59.65-.11.55.34.69.43.1.06.34-.2.49.02.03.04.23.9.23.95.03.74-.19.7.05,1.68.08.32-.32.48.43.57.92-.64.06-.69-.03-.94-.21-.61.04-1.04.56-1.31v-.21c-.81-.28-.25-1.5-.28-2.13-.04-.71-.59-1.8-1.03-2.36-.21-.27-.63-.36-.75-.72-.11-.32.05-.54,0-.86-.15-.74-1.1-.95-1.66-1.28-.2-.12-.34-.44-.52-.52-.25-.11-.5.13-.65-.06-.45-.59-.47-1.71-.65-1.97-.11-.15-.41-.05-.58-.33-.13-.22-.15-.69-.31-1.02-.13-.26-.39-.34-.44-.46-.07-.18.07-.55-.14-.71l-.5-.04-.6.57-1.15-1c-.55.04-.49.67-.64.72-.77.23-1.34-.2-1.85-.11-.37.07-.64.3-.96.37-.52.12-2.7.35-2.8.87-.06.27.27.61-.01.87l-1.11.36c-.31-.49-.37-1.07-.23-1.62-.52-.21-.48.51-.8.44-.22-.41-1.17-.95-1.35-1.22-.51-.73-1.06-1.98-1.47-2.86-.07-.16-.25-.15-.32-.3-.35-.76.04-.84.57-1.28-.54-.63-.39.34-.88.22-.09-.4-.31-.74-.4-1.14-.2-.87-.12-1.77-.18-2.58,0-.11-.27-.02-.31-.3-.09-.62.17-.12.45-.45l-.43-1.03.29-.14c-.85-1.04.27-2.77.29-3.68,0-.39-.44-.59-.15-1.08.68.17.69,1.67.75,1.74.04.04.32.02.48.17.74.66.58,1.97,1.18,2.78.28.33.8,0,1.19.12.27.09.14.39.42.32.43-.17.91-1.26,1.26-1.53.23-.18.56-.17.72-.3.17-.14.18-.47.36-.67.24-.28.88-.44,1.21-.77.95-.93,1.37-1.26,2.38-2.09.43-.36.73-1.4,1.48-.94.02-.28-.08-.63.08-.88.18-.29,1.74-1.77,2.1-2.05.13-.1.47-.44.61-.23-.42.29-.7.84-1.04,1.16-.61.59-.46.05-.96,1.1-.07.15-.29.26-.33.4-.25.85,1.42.4,1.15.2l-.59-.22c.87-.59,1.41-1.5,2.2-2.2.99-.9,4.14-3.36,5.25-3.85.11-.05,1.16-.37,1.21-.33-.29.44-.54,1.03-1.16,1.04v.43c.3.33,2.69-1.84,3.28-1.77l.3.31c.62-.48,1.68-.53,2.28-.82.2-.1.3-.41.55-.48.4-.12.94.03,1.4-.06.33-.07,1.11-.42,1.64-.56,1.12-.32,3.53-1.28,4.56-1.03.21.05.46.03.51.3-.4,0-.69.26-1.1.3-.48.05-.9-.17-1.16-.15-.09,0-1.21.56-1.66.68-.3.08-.96-.21-.92.57.21.69,2.06-.32,2.43-.37.33-.04.67.16,1.12.12,1.3-.12,5.32-1.96,6.32-1.73.11.02.09.26.2.29.24.06,1.39,0,1.49-.17l.02-.57c.79.24,1.17-.24,1.72-.4.44-.13,2.02-.61,2.33-.62.39,0,.61.29.86.28.33,0,.59-.56,1.31-.44.53.09.69.85,1.25.88l-.44-1.03c.72-.11,1.47-.23,2.13-.58.14-.08,1.3-.86,1.35-.92.08-.09.38-1.06.33-1.14-.15-.05-.49.36-.43-.07.15-1.11.62-2.18.72-3.25.02-.21-.18-.54-.12-.62.03-.05.41-.13.58-.38.45-.65.26-2.27.29-3.09.02-.55.22-1.05,0-1.69.34.09-.09.62.51.44.05-.02.08-.3.15-.3.42,0,1.31.51,2.2.46.78-.05,1.22-.67,2.08-.85.27-.06,1.26-.22,1.34.06l-1.19,8.45-.69,1.51.73.07.14.67c.94-.02,1.96.18,2.86.22,5.96.21,12.04.34,17.49,2.75l1.94.46.02-.65c-.62-.2-1.43-.37-2.02-.63-.64-.29-1.16-.87-1.92-1.03-.3-.06-.6.1-.77.04-.26-.09-.53-.46-1.13-.61-3.67-.95-8.13-.68-11.84-1.59l-4.04-.22c-.13-1.08.08-.69.4-.91.58-.41-.26-.73-.26-.78,0-.35.65-1.27.45-1.82h.59c-.09-.31-.29-.81-.27-1.11.01-.25.23-.47.26-.74.15-1.4.31-2.81.48-4.21.14-.53.58-.11.85-.47l-.58-.23c-.09-1.2.59-.69,1.13-1.06,1.28-.88.6-.39,1.99-.7.1-.02.1-.24.22-.28,1.68-.51,2.88-.67,4.66-.61.55.02,1.79.55,1.39-.43.32-.25,2.24.54,2.67.74.15.07.18.31.37.4.35.17.75,0,1.07.24.12.09.9,1.17,1.01,1.35.19.33.15.81.39,1.08.3.35.84.14.95.66.24,1.08-1.03.5-.71,1.67l.41.1.14.27c-.8,1.1-1.33,2.4-1.45,3.76.57.03.45-.74.66-1.04h.36c.05-.46-.17-1.08.22-1.45.18.32-.02,2.16.44,2.19.59.05.59-2.07.94-2.55.12-.17.42-.06.45-.09.05-.04-.16-.46-.14-.65.02-.33.32-.56.37-.82s.1-1.32.21-1.46c1.05,1,1.47-.89,1.9-1.1.36-.18.92-.03,1.32-.07.04.03-.45.72.15.59v-.59c1.08-.33,2.04.91,2.65,1.1.37.12,1.14-.33,1.02.51l.58-.23c.44.4.71.97,1.1,1.41.19.22.49.3.67.5.25.28.46,1,1.02,1.12-.83,1.61-.72,3.44-.73,5.2,0,.34.15.64.14,1-.03.92-.59,1.49-.87,2.3.34.33,1.14-1.33,1.25-1.61.2-.56.48-1.7.62-2.32.15-.65.18-2.09.41-2.53.21-.39.32.28.45.3,1.25.24-.61-1.8.07-2.36.66-.07.99,1.07,1.55,1.01.14-.02.16-.35.24-.39.16-.1,1.04.12,1.26.22s.13.3.25.34c.31.1.26-.32.21-.48-.06-.2-.82-.47-.73-.84.95.13,1.79.81,2.33,1.57-.07.64,0,2.93.3,3.36.27.38,2.45-.27,2.94.57-.23.26-.65.55-.71.92-.02.14.09,1.64.12,1.88.03.25.19,1.05.59.95.02-.93-.52-1.47-.16-2.44.08-.2-.05-.25.31-.2l.29,3.23-.51-.44c-.39.5.44.86.48,1.12.12.74.33,3.01.31,3.78-.02.71-.34,1.93-.93.86l-.52.18c.47.56.48.81,1.32.66.19.67-.43.89-.44,1.47-.52-.28-1.02,0-1.47-.06-1.36-.18-2.49-1.4-3.52-2.06-.36-.23-1.3-.24-1.75-.53l.15-.58c-.78,0-2.03-.82-2.73-.88-.46-.04-.6.32-1.02.18-.22-.08-.21-.31-.3-.31-.99-.03-.56-.28-1.04-.42-1.2-.35-1.93.07-3.11-.85-.13-.1-.28-.5-.38-.5-.05,0-.21.3-.42.27-.12-.02-1.23-.95-1.27-.35.28.21.68.34,1.01.47.36.14.56-.14.45.48l-.58.16c.14.49.52.12.8.15.94.09,1.48.61,1.94.7.29.06.57-.19.96-.09.66.17,1.78.93,2.46,1.22,2.03.89,4.15,1.73,6.2,2.75.56.28,1.37.56,1.83.89.09.07.16.38.26.39.04,0,.39-.43.66-.29.24.56-.73.48-.22.88.43.09.65-.49,1-.63.32-.13,1.06.14,1.41.27.59.23,1.4.68,2.04.9.47.16,1.68.32,1.99.51.27.17.22.46.39.64.27.28,1.52.28,1.7-.07.15-.3-.32-.4-.17-.88.11-.35.54-.59.74-.89.27-.42.19-1.05.82-1.16-.09.41.23.81.27,1.14.14,1.22-.26,3.65-.4,4.97s-.22,2.94-.49,4.35c-.3,1.54-1.14,2.96-1.57,4.45.12.69.53-.17.73-.15-.02.64-.38,1.5-.43,2.07-.04.44.14.75.12,1.02-.02.29-.51.86-.28,1.39-.63.16-.95-.34-1.47-.51-2.53-.84-4.05-.23-6.5-.27-.28,0-.59-.23-.88-.2-.54.05-2.15,1.76-2.75,2.22-1.11.85-2.62,1.1-2.33,2.94.04.28.27.52.29.75.02.37-.36.61-.44,1.02-.05.26-.13.54.21.5.73-.08.67-.76.9-1.31.17-.41.3-.87.43-1.18.2-.45.63-.85.82-1.32l.71.13-.44-.37.66-.66c-.09.47.34,1.22.33,1.51,0,.33-.7,1.56-.55,1.71.69-.09.92-1.22.85-1.8s-.11-.86.14-1.52c.21-.56.7-.73.99-1.22l.07.59c.91-.2,1.76-.1,2.68.03.19.03,1.46.55.92-.33-.3-.49-1.31,0-1.25-.58.38.13.81.11,1.18.21.35.1,2.15.93,2.4,1.12s.18.5.32.59c.19.13.57.06.75.17.22.14.06.59.77.25.08.08-.83,1.64-.95,1.91-1.12,2.56-2.03,5.23-3.02,7.84-.22.58-.58,2.05-.92,2.53-.14.19-.7.5-.83.86l.29.36c-1.08-.17-.8.39-1.11.87-.13.21-.35.33-.48.55-1.43,2.4-2.64,4.81-4.57,6.88l-.58-.1c-.09-.31.17-.61.11-.91-.06-.32-.63-1.01-.93-.55-.1.15-.02.45-.1.56-.05.07-.68.15-.78.47-.18-1.7-3.22-2.24-3.3-.29.38.03.42-.36.81-.44.28-.05.86-.04,1.14.03.56.13.56.63.9.86s1,.39,1.39.74c-.31.59-.27,1.36-.47,1.92-.11.3-.47.6-.51.81s.12.44.06.77c-.2,1.01-2.18,3.99-3.17,4.33-.37.13-.51-.01-.87-.07l.59.44c-.06.48-.74.02-.88.15.38,1.1-.48.74-1.07.91-.43.13-1.14,1.05-1.72,1l.29.58c-.37.02-.68-.23-1.07-.12-.09.03-1,.99-.98.34,0-.15.7-.29.58-.66-1.36.28-1.46,1.46-2.47-.24-.32-.53-1.13-2.37-1.19-2.93-.05-.47.18-1.42.48-1.77.21-.25.88-.31.83-.78-.38.22-1.21.1-1.46.21-.28.13-.38.58-.48.63-.16.09-.46,0-.69.11-1.65.82-3.09,2.17-4.84,2.72v.57c-.59-.4-.7.23-1.12.3-.53.08-1.3-.16-2.01.03-.51.14-1.21.74-1.75.89s-1.07.1-1.65.26c-1.77.47-2.21,1.14-4.25,1.32-.47.04-.96.23-1.47.14l-.31-.59-.07.58c-.35-.2-.8.06-1.07-.02-.34-.09-.28-.73-1.04-.67-1.17.09-.6-.13-.93-.19-.26-.05-.55.11-.8.07-1.55-.25-2.4-.68-4.14-.49-1.04.12-.72.3-1.78.13-1.25-.2-3.39,1.09-3.79,1.03-.06,0-.32-.58-.97-.3.46-1.01-1.08-1.42-1.72-1.87-.72-.21-2.58-.4-3.33-.33-.33.03-.58.34-1.04.31-.49-.03-.8-.61-1.38-.69-.77-.1-1.66-.06-2.43-.09-.6-.02-1.35,0-1.39-.64-.59.14-.97-.43-.15-.35.17-.73-1.97-.42-2.05-.28v.42s.58.3.58.3c-.48-.02-1.39-.18-1.47-.73-.51.58-.81-.04-1.31-.08-.33-.03-.69.65-.87-.17l.21-.33c.7.03,1.7.75,2.37.47.22-.09.22-.04.19-.33-.42,0-.74-.34-1.11-.43-.52-.13-1.4-.09-2.01-.3-.17-.06-.14-.28-.26-.35-.19-.11-.44-.07-.58-.16-.06-.04-.56-1.07-.65-1.26s-.05-.5-.1-.56c-.05-.05-.42,0-.65-.15-.09-.06-.59-1.04-.61-1.14-.06-.38.53-1.12.18-1.81-.04-.08-1.27-.68-1.34-.69-.22-.04-.52.24-.71-.03-.56-.71-.15-1-.08-1.56.05-.36-.07-.86,0-1.14.03-.12.51-.08.29-.38-.01-.02-.2.02-.24-.04-.14-.2.07-.8-.41-.99l-.51.29c-.3-.66.02-1.24,0-1.81-.01-.24-.25-1.48-.32-1.75-.05-.2-.27-.62-.48-.64-.9.15-.89.74.07.69.02.36-.34.56-.3.94.03.22.27.38.29.6.03.26-.17.63-.15,1.02.02.51.31.87.47,1.3.06.15.21.14-.02.32-.4.24-.85-.09-1.22-.05s-.74.53-1.06.56c-.57.05-2.83-.45-3.03-.41-.15.03-.36.23-.61.29-1.46.36-3.01.29-4.13,1.44-.13-.61-.79-.15-.22.22l-.44.22v-1.03s-.44.15-.44.15c-.08-.68-.38-1.31-.51-1.98-.07-.39.02-1.03-.12-1.58-.13-.51-.6-.74-.25-1.58l.88.29v-.37c-.47-.17-.42-.79-.6-1.27-.05-.13-.24-.12-.27-.22-.06-.24.06-.55-.07-.78h-.66c-.1-.42.48-.29.45-.64s-.35-.54-.4-.77c-.06-.29.18-.83-.19-1.22h.66c.46-.29-.42-.58.17-.86.33-.17.76.14.99.13.08,0,.06-.21.2-.28.13-.07.37.03.55-.16.09-.1.27-.81.22-.88-.43-.14-.42.59-.62.7-.05.03-.71.1-.85.11-.19,0-.23.16-.15-.15.1-.4,1.24-1.41,1.57-1.51.55-.17,2.11.13,2.25.85.35-.62,3.42.09,3.22-.8-.79-.65-2.02-.16-2.82-.25-.57-.06-1.5-.67-2.23-.57-.3.04-.37.31-.53.37-.21.09-.84.03-1.26.27-.38.21-1.45,1.91-1.66,1.71.03-.54-.51-1.15-.44-1.67.01-.09.47-.12.29-.53l-.59.15c.27-.57-.05-.95-.13-1.4-.08-.42.13-.88-.31-1.17.61-.12.15-.88-.08-.51-.13.21.08.54-.36.44-.04-.84-.4-1.53-.74-2.27.28-.38.75.03,1.18-.22-.31-.76.41-1.07-.65-1.16-.27.05-.18.73-.6.72-.11,0-.05-.2-.12-.25-.09-.06-.7-.07-.39-.34.03-.02.27.04.39-.04.14-.09.36-.71.62-.93.19-.17.51-.17.61-.3.48-.64-.36-.66-.16-.93.36.02.52-.42.73-.51,1.06-.49,2.55.68,3.44-.23l.15.31c.24-.02.59-.32.81-.23.07.03,1.02.86,1.1.95.17.19.18.39.31.58.08.12.31.13.35.26.05.18.02.7,0,.92-.79-.48-1.42.33-2.18.47l-.03.41h-.43s-.31-1.02-.31-1.02c-.21.23-.72-.05-.72-.22,0-.07.63-.46.44-.81-.14,0-.31,0-.42-.08-.34-.23-.71-.5-1-.65-.43-.22-.7-.37-1.14,0-.52.43.45.83.37,1.47.63.24-.13-.98.36-.73.22.11,1.05,1.66.96,2.05l.44-.15c-.02.4.17.7.59.74-.08.44-.55.12-.58.15-.02.02-.02.38-.21.6-.2.23-1.24.66-1.37.9-.27.47-.2,1.32.47,1.3.53-.02.85-.44,1.4-.31-.54.56.97.04,1.01-.02.15-.24-.26-.66.53-1.01.5.94,1.66.63,2.57.73-.27-.98-1.47-1.1-2.18-1.63l.06-1.02c.37-.32.73-.47,1.22-.46.13-.22.15-.47.17-.71ZM118.76,63.73c-.04-.06-1.27-.44-1.48-.5-.59-.16-1.62-.17-2.03-.3-.35-.11-.64-.69-1.02-.16.5.82.9.32,1.5.39.18.02,1.55.43,1.85.51.35.1.63.45.98.49.33.04.28-.33.21-.43ZM128.59,93.36c-2-.2-1.14-1.23-1.54-2.34-.1-.29-.77-1.45-1.17-1.33-.52.11.29,1.16.51,1.25l-.3.31c.15.85.31,1.51.88,2.17-.15.42-.96.56-1.12.72-.05.05-.69,1.22-.63,1.28h1.17c.12-.43-.57-.21-.22-.74.04-.06,1.02-.76,1.11-.8,1.26-.47,1.16,1.2,1.31,1.97,1.28-.27.1-1.51.2-2.13.02-.15.27-.26.34-.47.23-.67.12-.89.78-1.42.62-.51,1.52-.58,1.31-1.55-.25-.26-1.86,1.26-2.05,1.54-.29.42-.51,1.03-.59,1.54ZM120.78,97.42c.31-.28.59-1.47,1.22-2.08s1.82-.89,1.61-1.98c-.67.91-1.76,1.31-2.42,2.2-.58.77-.59,1.92-1.62,2.05-.28.45.19.86.19,1.23,0,.7-1.33,1.76.04,2.16-.31-.81.09-1.26.26-2.02.08-.37-.04-.82.06-1.11s.49-.27.67-.43ZM124.05,96.29c-.31-.7-2.77-.09-2.64.51.1.47.9-.17,1.2-.26.45-.14.97-.21,1.44-.25ZM129.33,98.2c-.13-1.15-.91-.74-1.62-.95-.75-.22-1.14-1.28-2.12-1.11-.46.08-.47.58-.3.59,1.06-.45,1.07.67,1.69.95.55.24,1.17.04,1.62.14.32.07.24.53.72.38ZM124.24,100.51c-.51-.63-.02-2.15-1.21-2.54-.41-.13-1.15-.1-.67.37.23.22.5.27.72.6.15.22.55,1.29.53,1.53-.03.29-1.67,1.93-1.32,2.28s.94-.96,1.11-1.16c.43-.51.71-.71,1.38-.45.1-.41-.41-.46-.54-.63ZM127.4,99.4c-1.12-.19-2.26.71-2.18,1.88.62-.06.52-.72,1.04-1.09.37-.26.87-.36,1.31-.23l-.17-.56ZM44.25,102.75c-.62.24-.76-.96-1.09-1.33-.28-.31-.68-.28-.96-.51-.25-.2-.31-.77-.78-.64l-.69.42c-.05.28.32.06.42.16.08.08-.06.48.16.65.11.09.41.06.58.15.64.35.36.96.47,1.07.05.05.77.54.96.79s.15.93.48,1.21c.01.08-.21.05-.28.18-.68,1.33-1.84,4.03.7,2.07l.02-.35-.45-.31c.01-.83.87-.91,1.52-.79.33.06.92,1.77,1.72,1.61.16-.17-.5-2-.66-2.21s-.42-.02-.61-.1c-.37-.16-.58-.63-1.07-.33l-.16-1.31-.41-.08.13-.37ZM118.91,103.04c-.13-.13,1.06-1.92.37-1.9-.35,0-.59,1.05-.72,1.33-.12.25-.46.52-.5.68-.05.22.18.55.13.62-.02.03-.44.1-.66.3-.34.3-.4.81-.55.99-.21.24-.84.23-1.12.72-.08.15-.61,1.89-.61,2.04,0,.4.23.7.52.95.73-.17-.05-.6.07-1.24.01-.07.54-1.21.61-1.31.21-.35.86-.62,1.16-1.04.2-.28.24-.65.37-.8.21-.26,1.81-.96,2.16-.86.17.04.57.68.69.2.27-1.11-1.25-.99-1.91-.66ZM45.42,104.22c.49.08.49-.52.67-.72.55-.61.42-.17.74-1.04.07-.18.29-.34.31-.54.07-.56-.5-.84-1.01-.43-.11.09-.97,1.41-.99,1.5-.05.25.39.85.26,1.23ZM125.94,101.74l-.86-.02c.22.51.39.87.29,1.47.54.09.7-1.23.57-1.45ZM50.27,101.72c-.25.44-.68,2.5-.07,2.64.54.12.25-.8.28-1.03.08-.64.75-1.4-.21-1.61ZM120.97,103.63c-.07.07,0,.43.15.52.22.13.47-.08.6-.01.16.09.25.67.67.94.23.15.88.37,1.17.44s.72.27.93-.06c-.39-.37-1.21-.41-1.6-.75-.24-.2-.27-.62-.45-.73-.23-.14-.63-.03-.92-.1-.12-.03-.43-.39-.55-.26ZM119.94,106.86c.68.02.33-.68.11-1.06-.32-.57-1.26-1.43-1.28-.26.61-.03,1.11.8,1.18,1.32ZM122.58,107.3c.36-.66-.18-.92-.78-.71-.13.04-1.41,1.24-1.12,1.59.81-.17.96-1.39,1.9-.88ZM120.21,109.92c.29-.17.2-2.32-.12-2.56-.86.13-1.62-.36-2.27.39-.19.22-.31.39,0,.57.59-.45,1.09-.59,1.84-.38.35.25.04,1.6,0,1.99l.56-.02ZM115.1,108.77c-.22-.21-1.33.63-1.07,1.28s.86.38.49,1.45c-.35,1-1.11,1.28-1.84,1.93l-.95-.25c-.05.22.21.53.08.73-.18.28-1.89,1.24-2.35,1.25-.68.25-.26.85.36.8l-.15-.58,2.49-1.03c-.24.42-.07.89.07,1.32l.37-1.17c.7.64-.2,1.53,0,2.57.08.41,1.49,1.14.29,1.03l.44.95-.44.07c.41.23,1.05,1.35,1.3.41.08-.29-.09-1.36-.1-1.73,0-.19.13-.4.12-.59-.09-1.18-.38-2.44-.89-3.51.95-.78,2.27-1.75,1.82-3.15-.11-.33-.49-.62-.5-.83,0-.31.59-.51.45-.95ZM109.97,115.66c.11.69-.9,1.25-.22,1.9.42-.51,1.06-1.57.22-1.9Z"/>
  <path class="st0" d="M127.13,42.44c0-.7-.34-.91-.31-1.39.02-.41.49-.92.46-1.39h-.59c.4-.59-.25-.58-.15-.81.2-.44.82-.01.88-.08v-.37c-.59-.21-.44-.7-.62-1.14-.1-.24-.32-.33-.41-.62-.09-.31.05-.12.15-.17.15-.07.42-.19.58-.13.3.1,1.65,1.6,1.59,1.89-.03.13-.4.39-.26.54.28.31.26-.44.51-.29,1.14.63.9,2.11,2.07,2.49l-.09.74.58-.15c-.15.81.22.48.39.63.19.16.34.61.64.77l-.44.29.74.6c-.28.31.08,1.94-.59,1.6-.5-.26-.35-.75-.52-1.1-.22-.45-.9-1.13-1.14-1.5-.51-.82-1.07-2.27-1.64-2.9-.13-.14-.46-.53-.61-.56-.93-.17-.2.75-.2,1-.13-.05-.66-.21-.73-.14.15.34-.31.48-.31.52,0,.32.4,1.1.82,1.09l-.37-1.02.52-.14c.07-.08.06-.2.06-.3.15.06.56.25.59.37.11.44-.75.18-.59.66l.88-.15c-.06.16.14.35.14.37,0,.43-.7-.15-.58.29l.88.37-.15.73.51-.44.36.38-.43.93c.39-.44,1.23.5,1.28.83.03.17-.11.32-.11.49-.46-.12-.89-.6-1.32-.07.73.25.45.79.62,1.07.08.14.47.05.32.62.81.15.4.42.61,1.02.11.32.42.49.66.69l-.16.49-.29-.14c-.25,1.11.35.78.52,1.02.1.15.06.42.07.6l.58.07-.29.51c.76-.41.82.52,1.39.88.18-.1.37-.59.58-.29s1.21,2.66,1.33,3.07c.07.25.09.48.07.74l-.73-.22c.38-.62.2-.76-.01-1.37-.55-.17-.71.52-1.09,0-.27-.37-.14-.64-.29-.89-.1-.17-.46-.21-.58-.45-.09-.17-.03-.46-.1-.55-.09-.12-.49-.09-.66-.22s-.31-.68-.48-.91c-.45-.59-3.34-3.22-2.79-3.89l1.1.88.22-.73c-1.52.38-1.83-3.18-2.49-3.38-.09-.6-.11-.97-.59-1.32ZM129.03,43.76c.08-.84-.38-1.22-1.02-1.61l.39.86.64.76Z"/>
  <path class="st0" d="M127.71,43.76c.03.22-.15.47-.11.64.05.27.85.81.33,1.41l-1.62-1.32.08-2.05c-.51-.12-.24.68-.32,1.07-.28,1.23-1.08-.06-1.36-.63l-.44.29c-.3-.14-.19-.74-.29-1.03-.07-.22-.6-.86-.67-.48l-.29.34c-.13-.25-.02-.88-.09-1.03-.11-.26-.49-.32-.6-.48-.22-.31-.44-1.01-.7-1.28-.35-.38-1.57-1.12-1.98-1.54-.15-.15-1.22-1.45-1.26-1.54-.13-.28.06-.46.08-.73l-.88.15c.02-.34.01-.78-.44-.73.2.78-.68.8-.05,1.57l-.17.93c-.64-.61-1.78-.81-2.48-1.19s-2.11-2.07-2.61-.88c-.28.2-1.01-.68-1.23-.86-.14-.12-.39-.13-.51-.23-.46-.41-.1-.98-1.4-.36l.22.59c-2.27-.02-4.47.53-6.69.86-2.04.3-2.43.14-4.45.95-1.29.52-4.13.21-5.13.91-.16.11-.18.41-.39.47-.15.05-2.87.16-3.05.14-.26-.03-.47-.35-.6-.35-.08,0-.3.23-.58.25-1.32.09-1.51.05-2.59-.51-.14-.07-.38.05-.51-.07-.32-.28-.27-1.32-.21-1.78-.33-.09-.35.13-.4.4-.1.5-.01,1.01-.04,1.5-1.13.23-2.23-.12-3.33-.23-1.75-.16-3.5-.48-5.23-.67-.66-.07-2.6-.68-2.14.46-.26.2-1.47-.6-1.72-.69-.89-.32-2.1-.66-3.03-.79l-.09-.42c-.29-.07-.36.26-.63.26-.46,0-1.32-.45-1.86-.41.11-.36,1.02,0,.88-.58-.71,0-1.49.07-2.13-.29l.15-.29h2.71l-.09-.45c-.13-.1-1.31-.12-1.56-.09-1.04.11-2.27.56-3.26.7-.66.09-1.25-.16-1.78-.16-3.09.03-4.95,1.94-7.77,2.06-.64.03-1.05.04-1.11-.72-.39-.09-.8,0-.73.5.01.1.45-.01.3.37-.98-.43-.88.05-1.27.3-.17.11-.49.06-.6.18-.06.06-.06.52-.46.63l.21.51c.43-.53,1.2-.03.93.42-.05.09-1.46.78-1.74.98-.2.14-.06.47-.45.35l-.14-.52c-.26-.21-1.53.63-1.88.78-.23.09-.56.02-.88.15-.42.17-.49.6-.67.73-.22.15-.67.1-.8.23-.05.05-.54.66-.7.84-.11.13-.89,1-.3,1.03l.45-.73c.43-.11.36.2.58.43.79-1.74,2.21-2.45,3.96-2.93l.07.29c-.29.22-.95.38-1.16.53-1.33.93-2.83,2.49-4.19,3.58-.32.26-1.2,1.2-1.47,1.32-.29.12-.22-.16-.19-.34.12-.68,1.13-1.39,1.58-1.94l-.22-.37c-.48.33-.7.28-1.24.15l.08-.44-.37.58c.33-.02.7.14.74.52-.01.65-2.2,1.63-.89,2.2-.64.67-1.34,1.3-1.98,1.98-.16.17-.29.5-.43.61-.23.17-.73-.14-.92.32-.06.15.2.38-.11.54l-.38-.58-.72.21c.01.62.68.34.72.37.36.26-.08,1.23-.36,1.46-.2.16-.49.13-.51.15-.04.04.14.37.09.59-.06.24-.36.4-.44.59-.24.53-.29,1.55.5,1.16.06.27-.21.39-.32.63-.16.34-.4,1.28-.55,1.47-.12.16-.54.11-.6.32-.08.26.22.44.25.61.1.56-.58.89-.76,1.23-.17.31-.16.76-.35,1.12-.23.44-1.02,1.33-1.14,1.67-.1.27.07.44.04.55,0,.02-.24.3-.26.32-.35.24-.28-.4-.43-.52l-.44.09c0-.55.36-.42.73-.29.12-.57-.15-.64-.58-.88-.18.56-.95.71-.74,1.51.05.18.45.06.46.61,0,.26-.39,1.47-.53,1.69-.21.34-.7.2-.51.89l-.58-.15c.08.54-.09.93-.59,1.17.06-.82.35-1.61.44-2.42.18-1.61.05-3.89.47-5.4.05-.17.51-.77.66-1.11.05-.11.28-1.4.49-1.2l.29.44c.09-.39-.15-.83-.08-1.18.05-.26.28-.47.34-.69.22-.96.62-3.99,1.29-4.58.25-.22.68-.08.79-.38l-.06-1.96h.81s.18-1.05.24-1.18c.11-.22.39-.33.5-.51.55-.91.61-1.68,1.01-2.66.1-.24.85-1.34,1.03-1.22.03.02-.05.38.23.28.46-.49.73-1.11,1.17-1.62.16-.19.51-.3.6-.44.12-.19-.05-.42.01-.59.74-1.9,3.01-4.47,4.31-6.09.21-.26.32-.81.58-1.03.63-.52-.17,1.07,0,1.25l.67-.14c.09-.19.03-.45.11-.63.71-1.67,1.87-3.26,3.35-4.28.22-.15.92-.35.98-.43.07-.09,0-.33.04-.38.1-.1.59.07.87-.09.17-.1.38-.68.66-.81.21.11,0,.38-.07.52-.05.11-.8,1.32-.23,1.09.45-.18.95-1.66,1.31-1.92.25-.17.56-.09.81-.21.32-.15.76-.87,1.1-1.1.23-.15.52-.13.75-.28.33-.22.4-.67.67-.95.1-.1,1.37-1.02,1.48-1.09.05-.03.74.12,1.01.04.42-.12,1.48-.8,1.75-1.16.2-.26.08-.9.81-.38.27.19.27.85.57.74.36-.13-.14-.71.32-.86,1.17.09,2.52-.34,3.64-.32.68,0,1.56.33,2.22.51,1.93.52,3.57,1.14,5.54,1.4.11.01.11.25.2.3.78.37,1.19.12,2.02.16l.37-.45-.15.58c.5.04,1.03-.05,1.53,0,.2.02.34.23.49.25,1.85.31,3.89.91,5.68,1.29.19.04,1.17,0,1.25.07v.87c.31-.1.66.23.81.24.41.03,1.04-.96,1.75-.82.12.02.3.23.08.37-.17.11-.63-.22-.59.36l1.01-.17.03-.39,3.73.39c1.52-.37,2.9.62,4.47.18v-.44c-.5.11-1.16-.27-1.57-.26-.89.04-.49.15-1.59-.03-.85-.14-2.12-.03-3.07-.16-.22-.03-.88-.06-.95-.29.68-.42,1.31.05,1.79-.03.58-.09,1.59-.66,2.12-.83,1.26-.4,3.36-.4,4.63-.77.13-.04.1-.29.19-.29.63-.03.95.04,1.76-.06.4-.05,2.48-.16,2.57-.47.06-.22.05-.56-.3-.5.12-.46.46-.13.67-.17,1.42-.24,5.92-.82,7.14-.26.13.06.73.45,1.04.62.44.24.74.87,1.21.26l.22.59.73-.14.26.66c-.83.36.1,1.72.47,1.39l-.29-.51c.81-.18,1.41.82,2.2.66l-.15.58.72.02.03.39c.81-.06.86.6,1.3.99.47.42,1.35.7,1.18,1.39h.58c-.19.8.51.64.67.88.24.34-.16.83.95.74l-.59.66c.1.22.77.44.96.66.18.2.17.48.25.56.82.78,1.33,1.28,1.92,2.55.14.3.31,1.54.69,1.23.13-.1.06-.42.28-.37-.02.41.55.63.66.88.14.31.03.68.15,1.03.3.89.92,1.74,1.18,2.64.29,1,.26,1.91.4,2.83.12.8.64.63,1.14.99,0,.4,0,.78-.08,1.18.17.22.5.09.67.14ZM119.02,29.42s-.71-.34-.76-.34c-.35.72.45.46.52.51.18.13.13.8.36.81.39.02.03-.85-.12-.98ZM108.06,32.17c.07-.37-.18-.32-.38-.43-.78-.44-.65-.25-1.3-.31-.32-.03-.6-.59-.96-.07l1.9.74.74.07ZM62.14,31.43c-.19-.16-4.28,1.26-4.68,1.56-.18.13-.36.23-.31.5.66.14,1.23-.5,1.61-.64.45-.17,1.27-.26,1.65-.39.17-.06.15-.34.35-.41.38-.14,1.34.09,1.37-.61ZM111.32,32.57c-.15-.09-.12-.56-.62-.4.37.46-.36.67-.29.95.51.41,1.52.79,1.61-.15l-.06-.22c-.14-.18-.47-.08-.63-.18ZM113.03,33.5c-.32-.34-1.17.12-.73.65.57.68.97-.39.73-.65ZM55.4,34.07c-.07-.08-1.92.68-2.09.77-.24.12-.38.42-.25.55.19.19,1.85-1.1,2.25-.88l.09-.44ZM113.63,34.96c.54-.24.5.07.81.44.72-.74.14-1.45-.79-1.01l-.02.57ZM116.71,35.1c-.49.26-.64-.09-1.1-.15l-.37.88c.67-.29.59-.39,1.17.15l.29-.88ZM44.79,38.58c.27-.33.34-1.01-.25-.98l-.22.88-.44-.29.08.74c.1.11.73-.21.83-.34ZM43.81,39.36c-.71.25-1.54-.36-1.76.73l.81-.44.44.43.52-.73ZM42.93,40.24c-.38-.34-1.15,1.02-1.17,1.32.23.23,1.29-1.21,1.17-1.32ZM36.91,46.84l-.37-.58c-.09.34-1.03.99-1.07,1.06-.1.18.04.51-.1.71-.1.15-1.05.26-.67,1.02.52.15.19-.5.29-.59.77.16,1.33-1.09,1.47-1.76l.44.15ZM36.04,50.65c.02-.4-.37-.64-.73-.59l-.29,1.17c.71.17.25-.71,1.03-.59ZM34.57,52.12l-1.39,1.33-.23.73.46-.34,1.15-1.71Z"/>
  <path class="st0" d="M74.39,143.54c-.07,0-.26.27-.37-.14.77-.34,1.82.35,2.34-.37,0-.61-2.66-.25-3.13-.2-.58.05-.99.48-1.56-.02v.44c-.7-.27-1.19-.03-1.84.01-.24.02-.53-.16-.71-.12s-.27.34-.53.25v-.59c-.2.06-.28.27-.52.3-.19.02-2.08-.15-2.21-.21-.17-.08-.15-.35-.31-.39-.71-.18-1.63.18-1.95-.88h-.29c0,.47-.56.54-.93.44-.17-.05-.16-.38-.31-.4s-.53.12-.97.04c-1.14-.19-2.6-1.02-3.46-1.22-.24-.05-1.08.09-1.43-.03l-.31-.56c-.54.2-1.34.11-1.87-.08-.15-.05-1.77-.95-1.84-1.02-.14-.14-.2-.93-.34-1.17-.25-.45-.93-.91-1.24-1.74-.07-.19.08-.41.07-.42-.03-.03-.31,0-.5-.16-.48-.41-1.28-1.39-1.76-1.91-.15-.16-.99-.56-.3-.73l.96.73-.06-.74c-.57-.08-.55-.26-.84-.49-.25-.2-.53.09-.44-.66-.61-.23-.76.31-1.3-.25-.23-.25-.43-.88-.48-.91-.12-.07-.36.02-.52-.06-.06-.03-.9-.85-.93-.91-.13-.23-.16-.41-.14-.67-.26-.06-.1.25-.15.29-.25.19-.73-.74-1.03-.83l.3-.78c-.65-.26-.46.72-.8.58-.39-.47-1.02-.44-.66-1.17l-.73.29c.09-.84-.88-1.19-1-1.87-.04-.24.15-.45.09-.59-.02-.05-.6-.44-.71-.69l.44-.51-.57-.02-.17-.57.93.28.4-.72.51.15.07-.29c-.83-.61-.64-.18-1.24-.13-.1,0-1.33-.06-1.39-.09-.09-.04-.48-.46-.44-.51l.44-.3-.58.14c-.09-.7-.86-.83-.44-1.61.07-.06.6.66.58.08-.27-.43-.71-.14-1.03-.42-.38-.34-.45-.93-.43-1.41l-.29.15c-.05-.07.12-1.06.18-1.21.22-.55.69-.72.5-1.63-.3-1.37-1.85-3.69-2.4-5.21-.08-.23-.04-.52-.11-.77-.3-.96-.87-1.65-.37-2.64l-.44.15.45-.66c-.51-.6-.37-.79-.31-1.53l-.43-.08.95-.52c.29-.94.36-1.64.24-2.62l.56-.17.1,2.13-.44.21-.1.44.73-.29c-.05.5.05.92.44,1.25l-.58.23v.43s.56.02.56.02c.29,1.28.93,2.57.74,3.86.64.13.72.46.3.96l.44-.15c-.24.6.37.63.43.82.07.23-.23.64-.12.93,1.03.02.66.8.79,1.04.15.27.88.42.52,1.17l.44-.15c-.16.64.45.71.71,1.27.22.47.15.97.55,1.37l-.53,1.47c.48.15.53-.87.88-.52.16.16.12.46.23.65.28.47.88.85,1,1.35.09.36-.21.84-.04,1.13.04.06.35.15.49.31.43.51.81,1.11,1.3,1.56.19.17.69.29.92.55.97,1.11.84.83,1.98,1.45.33.18.36.64.86.55l-.3.22.3.6c.26.17.43-.25.64-.22s.88.74.53,1.01l1.13.34.49.98.22-.29c.49.46,1.28.93,1.4,1.61l.59-.22c.53-.58-.45-1.15-.84-1.5-.1-.09-.43-.09-.12-.33.37.36,1.1.25.96.88l.5-.14c.38.78.88.04,1.69.67.31.24.27.63.39.66.25.06.6-.14.85-.12.34.03.79.55,1.26.4l-.29.88c.46-.48,1.57.03,1.83.59l.51-.29c-.04.99,2.03,1.28,2.65.81v-.51c.3-.15.68.24.8.24.1,0,.28-.24.58-.25.45-.02,2.41.59,2.72.3l-.42-.66c-.9.01-2.01.04-2.89-.07-.68-.08-1.38-.64-2.26-.3-.12-.47.36-.2.52-.43.13-.2,0-.62.31-.73.07-.02,1.32.2,1.47.25.27.1.24.32.35.38.09.06.63,0,.81.24.44.02.38-.6.36-.88.41.22.81.11,1.21.17s.79.51,1.37.16l.8,1.28.16-.27s.23.1.35.09c2.01-.21,4.28,0,6.19-.21.62-.06,2.12-.36,2.59-.32.2.02.42.27.77.28.24,0,.32-.6.66-.22.03.21-.15.57.21.49.51-.11.18-.35.44-.58l1.1.14-.29.58c.76.35,1.67-1.38,1.77-.16.2.06.41,0,.61.05,1.31.4,4.32.24,5.9.26.72.01,1.19-.12,1.64-.12.35,0,.53.53,1.15-.17l-.15-.29c-.69.36-.6.14-1.05.05-.28-.05-.59.2-.78-.35,1.15-.06,2.3-.36,3.45-.44.44-.03.08.27.07.44.82-.06,1.77.01,2.56-.08.55-.06,1.08-.23,1.63-.35,1.22-.26,4-.81,5.01-1.29.37-.17.24-.52.43-.63.1-.06,1.98-.68,2.18-.72.16-.03.34,0,.5,0-.02.14-.18.28-.3.35-1.02.59-2.41.92-3.48,1.36-.15.06-.14.27-.29.33-.31.12-1.01.17-1.21.25-.14.06-.39.28-.15.43.23.13,1.65.12,1.95.04.26-.07.46-.37.7-.47s1.11-.26,1.17-.3c.23-.14.26-.76,1.02-.52l-.15-.44.88.14-.09-.44.82-.22-.29.81c.45.44,2.96-1.96,3.47-2.03.18-.03.36.29.7.28.45-.02,2.33-1.23,2.29-1.76.55.22,1.11-.06,1.46-.52-.09-.16-.46-.05-.6,0-.22.07-.39.58-.57.37-.43-.5,1.48-.79,1.58-.84.25-.12,1.73-1.18,1.95-1.43.34-.37.26-.78.29-.81.05-.05.67.04.92-.04.16-.05.26-.25.41-.32.2-.1.49-.08.65-.23.53-.51-.79-.07-.81-.22.99-.33.79-.73,1.14-1.35.92-1.62,2.21-3.11,3.23-4.69.66-1.03,1.52-3.07,2.22-3.91.13-.16.56-.14.6-.32.04-.17-.23-.32-.27-.47-.11-.46.53-1.44,1-1.07l.22-1.33.16-.12c.18.03.36.11.55.1.81-.07,2-3.47,2.45-4.22l.64.29c.53-.16,2.49-5.7,2.83-6.58.27-.71.75-1.38.96-2.13.1-.37-.04-.84.12-1.15.08-.15.85-1,.67-.25s-.85,2.11-.93,2.57c-.08.39.3.63-.27,1.16l.31.81c.47-.32-.06-1.48.66-1.47l-.74,3.43.3.31c-.81.35-.45.74-.62,1.28s-.59,1.3-.77,1.87c-.15.45.04,1.19-.51,1.47,0-1.39.69-2.71.99-4.07.07-.32,0-.64.07-.96,0-.05.56-.81.04-.55-.69.35-.51,2.03-.85,2.75-.38.79-.35,1.02-.58,1.98-.34,1.42-.23,1.14-.24,2.53-.01,1.54-.87,1.93-1.26,3-1.48,3.99-3.03,7.6-4.91,11.5-.09.18-.53.29-.29.98l-.45-.09c-.27.26-.19.89-.36,1.12-.11.14-.37.09-.47.18-.66.61-2.84,3.59-3.5,4.49-.13.17-.36.22-.5.38l.58.3c.04.2-.17.32-.29.44-.51.53-1.49.98-2.01,1.44-.68.59-1.33,1.43-2.12,2.07-.42.34-.84.69-1.3.97-.33-.43,1.72-1.78,1.39-2.35l-.74.59-.07-.22,2.49-3.23c.06-.18-.04-.29-.22-.22-.12.05-1.09,1.06-1.25,1.24-.74.85-2.2,2.69-2.7,3.59-.13.24.22,1-.67.3.02.71-.65.67-.3,1.32-1.15-.49-1.67.89-2.42,1.47-.95.73-3.66,1.37-4.85,1.61-.94.19-2.71-.12-2.7,1.18h.37c.26-.54.94.13,1.17-.88.27.75,1.06.08,1.47,0,.49-.08,1.04.01,1.53-.15,0,.22-.32.21-.4.34s-.01.37-.04.4c-.02.02-.32-.19-.61-.12-1.15.27-2.82,1.17-4.01,1.58-3.5,1.19-7.07,2.21-10.63,3.16-.22.06-.37.31-.66.36-.47.09-4.49-.33-4.76-.51-.14-.09-.13-.34-.15-.36-.07-.06-.71.62-.87,0,.96-.47,2.02-.43,3-.6,3.53-.62,7.2-1.54,10.68-2.08.12-.02.25-.22.36-.23.25-.04.37.34.59.4.18.05,2.39-.98,2.5-1.19.1-.18.01-.49.03-.7h-.59s.07-.73.07-.73l-1.5.99c-.45-.11-1.05.44-1.31.45-.36.02-.95-.12-1.57.02-.12.03-.08.3-.17.3-.22-.01-.32-.23-.46-.26-.1-.02-1.8.47-1.87.53-.19.14.03.49-.17.62-.41.29-1.69.2-2.18.28-2.81.47-5.64,1.28-8.38,1.74-1.25.21-1.96-.04-3.09-.11-1.06-.06-.77.31-1.1.55-.1.07-1.97-.54-2.33.09l.1.37.49.29c-1-.02-2.01.03-3.01,0ZM42.49,126.96c.3.18,1.53-.1,1.47-.51-.06-.39-.69.14-.87.04l-.59.47ZM48.8,126.52c-1.15.19-.23,1.64.59,1.32l-.59-.55v-.77ZM47.48,126.96l-1.13.85-.33.47c.73-.12,1.36-.58,1.47-1.32ZM117.15,129.6c-.21-.21-1.82,1.42-1.61,1.61.38.08.37-.06.56-.24.12-.11,1.16-1.26,1.05-1.37ZM57.3,131.8c-.11-.13-1.16.91-1.03,1.03l.66.13.15-.13.22-1.03ZM58.48,133.86l-1.91.44v1.32c.5-.04.61-1.05.94-1.33.36-.32,1.07.14.97-.42Z"/>
  <path class="st0" d="M78.67,46.16c.27.12.65.21.76.27.04.02.47.91.61.19l-.44-.37.56.02c.53,1.23-.07,2.55-.13,3.72-.07,1.24.11,2.58-.01,3.81s-.72,2.64-.74,3.95l-.19.24c-.22-.2-.44-.26-.73-.29-.93-.1-4.91.46-5.5,1.11-.27.3-.14.79-.74.65l.29-.44c-.72-.14-1.29.36-1.89.5-.45.11-1.1-.26-1.63-.06-.09.9.72.43,1.28.47.39-.09.09.21-.06.23-.54.09-.97.06-1.51.32.05-1.31-.16-.55-.59-.36-.14.06-1.13.37-1.43.47-.67.23-3.12.49-3.75.33-.15-.04-.22-.43-.4-.52.32-.13.59-.43.89-.58.33-.15,1.53-.21,1.38-.82-.47.16-.97.14-1.43.33-.73.28-.78.35-1.61.59-.31.09-.76.84-1.24.96-.7.18-1.84.18-2.57.36-.58.14-1.14.66-1.79.55l-.07-.29c1.09-.6,2.31-.85,3.52-1.1.26-.7-.5-.13-.7-.11-1.36.16-1.35.31-2.55.82-.4.17-1.46.17-.57.75-.55.61-.75-.05-.83-.07-.61-.17-.58.19-.76.27-1,.47-2.04.75-3.11,1.04-.14-.61.16-1.28.15-1.83-.03-1.58-.56-3.43-.72-5.01-.04-.41-.01-.82-.02-1.23l.88.29c-1.04-3.14.65-2.52,2.45-3.64,1.18-.73,3.76-2.48,5.1-2.53.91-.04,1.9.34,2.64.3.57-.03,1.2-.06,1.25-.67,1.43.06,2.09,2.13,1.88,3.35-.1.56-.55,1.18-.51,1.83.01.23.24.39.26.69.09,1.06-.21,2.29,0,3.38.04.24.23.51.51.52.08-.02.5-1.34.52-1.53.14-1.02-.36-2.54-.16-3.35.03-.12.31-.13.45-.47.4-1.01-.36-2.55,1.18-2.5l.05-.67.53-.14c.04-.81-.89.25-1.17-.22.15-.41,1.5-.99,1.59-1.12.03-.05-.18-.26,0-.5.4-.53,2.46-1.66,3.12-1.88,1.01-.32.64.35,1.07.35.58-.25,1.48-.79,2.07-.88s.92.43,1.53.29l-.11-.52c.92-.71,1.61.13,2.4.5.25.12.5.11.74.22ZM67.43,54.62c-1.6.23-.17,1.63.73,1.76-.22-.71-.99-.83-.73-1.76Z"/>
  <path class="st0" d="M36.92,65.18h.73s-.15-1.67-.15-1.67c.75-.33,1.04-.32.89-1.27h1.03s-.14-.35-.14-.35l.44-.74-.31-.17,2.35-4.9.81,1.46c.89-.73,0-.79-.18-1.06-.11-.17-.04-.52-.18-.74-.23-.37-.52,0-.43-1.04.1-1.17.4-.74.92-1.13.2-.15.25-.38.49-.54.71-.47,2.75-.71,3.6-.59.24.03,2.32.74,2.39.85.21.76-.05,1.67.07,2.42.1.58.32,1.27.45,2.04.22,1.32.66,2.89.82,4.15.04.34-.04,1.12-.02,1.53-.6.1-1.06.46-1.55.65-3.7,1.49-5.93,2.2-9.26,4.68-.23.17-1.41,1.1-1.53,1.09-.49-.04-.69-2.84-.82-3.4-.1-.4-.43-.8-.42-1.26Z"/>
  <path class="st0" d="M50.11,110.83l.37.44,1.1-.45c-.74,1.31.39,2.16.3,3.37l1.32-.15-.29.59.29-.07.45,2.46c.47.26.11.71.73.92l-.07.23c-.42.1-.45.4-.38.81.05.29.54.21.16.95l.59.15c-.5.72-.09.8-.03,1.28.07.6-.18,1.44.76,1.66-.02.41-.82.09-.88.15l-.1.44-2.03.29c-.8-.61-2.69-1.41-3.31-2.13-.51-.59-.8-1.17-1.1-1.83-.14-.31-.68-.47-.74-1.02.03-.69.85-.72,1.22-.95.05-.03.02-.22.03-.23.11-.07.32.41.63.41.25,0,.61-.23.93-.25.58-.03,1.37.2,2.01.07.11-.02.94-.28.99-.3.29-.19.03-.55,0-.81-.07-.05-1.34.44-1.71.43-.35,0-.51-.27-.85-.3-.51-.04-1.14.52-1.47.16-.2-.22-.2-.81-.66-.74l-.02.56-.71.17.15-1.03-.51.29c-.26-.32.44-.91.35-1.24-.04-.16-.34-.17-.39-.26-.09-.16,0-.47-.17-.78-.06-.11-1.03-1.03-1.14-1.06-.66-.2-1.43.18-2.1-.03.11.58-.64.49-.44,1.17.64-.04,1.49-.61,2.1-.42.3.09.3.42.44.52.29.22.77.28.93.7-.25.41-.37,1.7-.76,1.84l-.15-.29-.36.38.28.42-.3.16-.5-.23-.22.73c.81-.71,1.63.02.88.73v-.44s-1.47.07-1.47.07l.37.81c-.9-.42-1.63-.97-2.06-1.9-.1-.21,0-.52-.1-.7-.36-.66-1.21-1.68-1.53-2.5-.07-.19-.38-1.1.1-.91v.59s.44-.15.44-.15c-.22.8.33.98.3,1.61.24.03.09-.56.44-.29.03.02-.09.48.5.28.4-.13.13-1.31-.35-1.38.66-.42,1.23-1.44,1.94-1.72.14-.06,2.4-.57,2.53-.57.55.03.73.66,1.29.58.26-.04,1.74-1.48,2.01-1.29ZM50.31,115.32c-.08-.06-.12-.26-.28-.37-.36-.25-.95-.29-1.23-.83.9-.43,1.03-1.53,0-1.83-.18.67-1.3,1-1.18,1.82.04.28.41.58.3.97l.44-.15c.05,1.04.53.3.73.36.67.22,1,1.78,1.76.3.02-.08-.39-.15-.54-.27Z"/>
  <path class="st0" d="M132.99,58.14l-.02.28-.26.2c.35.8.95,1.39,1.36,2.17.62,1.18,1.24,3.12,1.6,4.41.13.44.62,1.98,0,2.16-1.32.06-2.84-.75-4.01.09-.14.6,1.35.08,1.68.07.7-.04,1.3.11,1.99.15-.54,1.02-1.33,1.95-1.62,3.08-.58-.28-1.16-.59-1.76-.8-.48-.17-3.82-.98-3.82-1.18l.47-1.07,2.18-.32c.6-.46-1.74-.35-1.83-.15l-.15-.14c.19-.45-.29-.61-.34-.83-.13-.57.5-.45.69-.57,1.22-.78.86-3.11.89-4.4,0-.48.17-.91.16-1.47-.02-.84-.33-1.86-.45-2.71.27.14.66.03.88.09.1.03.21.26.4.32.63.19,1.3.19,1.95.62Z"/>
  <path class="st0" d="M100.7,123.18c.06,1.01-.02,1.54-.52,2.43-.09.16-.34.18-.34.26,0,.15.17.35.14.56-.09.72-.27,1.19-.98,1.37-1.48.38-3.16.4-4.65.63-1.73.27-3.23.47-4.99.43-.25,0-.5.15-.74.16-.16,0-1.04-.76-1.07-.99-.03-.17.72-.84.42-1.36-.5,0-.84.4-.88.88-.26,0-.17-.38-.44-.51-.17-.09-.4-.07-.59-.07v-1.02s.42-.03.42-.03l.11-.42c.96-.21,1.2.47,1.97.6l-.15-.73c1.17.06,2.3,1.48,3.02-.13l1.38-.02-.44.73.72.02c.1.56.15,1.28.82,1.45.32-.07.19-1.39.4-1.8.18-.36.95-.46.63-.99l-.8.29c.01-1.28.86-.9,1.51-1.08,1.54-.44,2.75-1.46,4.54-.92.19.06.36.2.53.28Z"/>
  <path class="st0" d="M72.78,123.95c.48.44.61.62.88,1.26.68-.7,1.07.22,1.32.15.15-.04.18-.39.24-.42.04-.03.29.14.46.1.6-.14,1.62-.83,1.84.13.11.46-.19.91.4,1.07.07.02.23-.84.66-.74-.31-.36-.35-.7-.29-1.17.64-.3,1.26.16,1.69.16.29,0,.54-.26.87-.32,1.16-.21,2.08-.08,3.2.2,1.58.4.08,1.65,1.44,2.25l-.18,1.58-.57.24v.51c-.46.36-.71-.02-.98-.04-.82-.04-1.35-.07-2.17-.16-.52-.05-.3.34-.89-.43-2.31.24-4.64-.01-6.95-.18l.29-.37c-.23-.35-.63.03-.8-.37-.19-.44-.27-1.41-.55-1.96-.11-.22-.38-.22-.41-.35-.04-.15-.2-1.9.15-1.66,0,.26.22.36.37.51Z"/>
  <path class="st0" d="M138.47,61.91c.6.65,1.08.31,1.35.47.09.05,1.13,1.12,1.17,1.19.28.61-.39,1.76-.5,2.43-.5,3.14-.88,6.38-1.31,9.54-.12.88-.05,2.29-.22,3.03s-.99,1.39-.89,2.31h-.72s-.24.73-.24.73c-.47-.16-.64-.19-1.02.15-.01-.16,0-.32.04-.47.41-1.37.92-4.23,1.66-5.39.1-.15.36-.19.43-.3.21-.32-.05-.64-.03-.94.03-.37.55-.85-.12-.97-.41.67-.05,1.37-.95,1.76-.05-.56.74-4.1,1.1-4.11l.29.29c.33-.22.04-.79.51-.73l-.07-.29h-.66c-.11-.11.25-.89-.29-.73l-.08.57-.8,1.33.15-5.28.29.5h.3s-.36-2.56-.36-2.56c-.38-.54-.6-1.08-.52-1.76.1-.11.63.24.74.36.32.38.16,1.15.66.96.22-.09.21-.24.17-.45-.1-.5-1.27-2.28-.97-2.63.58-.03.68.72.93.98ZM139.6,67.83c-1.24-.02-1.78.24-1.76,1.61.76-.16.84-.97,1.53-1.18l.23-.43Z"/>
  <path class="st0" d="M36.72,71.73c-.3.33-.87.9-1.2,1.22-.27.26-.63-.05-.52.72-.44.04-1.1.43-1.36.77-.24.3-.35,1.2-1.02,1-.14-.04-.76-.92-.8-1.12-.09-.41.02-.84-.06-1.26-.12-.57-.38-1.06-.53-1.53-.09-.28,0-.63-.03-.92l-.88.15c-.12-.47.35-.2.51-.43.14-.2.08-.6.36-.96.5-.64,1.6-1.43,2.21-2.05.28-.29.29-.33.65-.66.59-.53.89-1.3,1.1-2.06.53.17.27.48.33.76.13.57.29,1.05.46,1.6.39,1.24.85,2.45,1.35,3.65.07.36-.34.86-.58,1.13Z"/>
  <path class="st0" d="M66.84,122.56c0,.32-.51.04-.71.17-.14.09-.25.62.06.7.4.1,1.98-.52,2.5-.58.48-.05.25.3.55.3l1.55-.31c-.22.68.37.59.52.88.26.52-.03,1-.22,1.47l-.51-.44-.37.88-.44-.15.29.73c-.59-.3-1.36.21-.95.88.18.3.79.12.66.58-1.05-.12-2.1-.28-3.14-.45-.56-.09-1.43-.1-1.76-.41l-.94.11c-.09-.16-.13-.33-.15-.51-.06-.49-.19-1.2-.31-1.72-.04-.15-.35-.14-.42-.34-.06-.16-.06-1.25,0-1.35l.41-.17c.25.61-.3.76-.3.81-.01.33.51.79.57,1.06.02.09-.26,1.02.17.63.22-.21-.23-1.7.36-2.22.05-.04.62-.12.65-.1.33.21.31,1.66,1.05,1.44.14-.94-.3-1.43-.88-2.05l1.76.15Z"/>
  <path class="st0" d="M57.56,121.79c.05-.03-.02-.27.24-.27.2,0,1.07.16,1.27.22.27.08.24.3.39.36.31.13.99.08,1.17.2.08.05.09.27.18.33.45.3.76-.34,1.24-.22l.45,2.63-1.46,1.32c-.68-.27-1.48-.2-2.15-.35-.78-.18-1.4-.69-2.24-.66-.19-.13-.33-1.38-.5-1.73-.14-.29-.45-.44-.55-.69-.14-.34-.06-1.52.45-1.49.3.02,1.2.51,1.5.34Z"/>
  <path class="st0" d="M105.56,119.63c-.66.38-.58,1.18-1.09,1.62s-1.04.11-.96,1.02c.13.14,1.25-.68,1.4-.73.37-.12.15.35.23.42l1.1.15.35,3.88-.23.22c-1.26-.03-2.39.6-3.62.74-.25-.08-.5-.88-.6-1.17-.12-.33-.67-1.9-.67-2.12,0-.11-.03-.26.08-.22.45.41,1.29.81,1.25-.15-.88-.1-1.51-.53-1.47-1.47,1.54-.38,2.79-1.72,4.25-2.2Z"/>
  <path class="st0" d="M117.74,137.38c.68-.99,1.35-1.9,1.94-2.98.69-1.27,1.35-3.49,2.04-4.56.35-.54.93-.32.57-1.27.41.23.6.14.88-.22l-.73-.29,4.25-6.09c-.14.66-.12,1.67-.28,2.27-.36,1.36-1.71,3.28-2.42,4.48-1.65,2.77-3.52,6.03-5.74,8.34-.15.16-.21.37-.5.31Z"/>
  <path class="st0" d="M116.37,137.92c-.92,1-1.82,1.39-3.05,1.86-.13.05-.35.21-.42.02.72-.38.69-1.13,1.24-1.69,1.55-1.6,2.75-2.53,4.27-4.38.11-.14.37-.21.43-.31.33-.5-.33-.37-.22-.66.59-.56.87-1.3,1.61-1.69.06.27-.06.44-.14.67-.63,1.77-2.44,4.8-3.72,6.18Z"/>
  <path class="st0" d="M27.53,67.09h.44c-.02.81-.51,1.48-1.17,1.91-.01-.57,0-1.26.18-1.8.12-.36.48-.69.52-.95.12-.83-.13-1.82.45-2.6.11-.15.36-.04.43-.11.06-.06.13-.77.33-.94l-.45-1c.54-1.1.38-2.87,1.32-3.75-.13.85-.09,1.71-.15,2.57-.05.74-.1,1.77-.18,2.46-.12,1.03-.75,2.24-.76,3.35-.27.84-.9.17-.96.88Z"/>
  <path class="st0" d="M123.02,43.03c-.02.45,1.08.81,1.25,1.02.18.23.12.82.27,1.13.42.84,1.91,2.07,2.51,2.99.13.21.93,1.64.82,1.75-.72.11-1.25-.85-1.68-1.33-.14-.16-.42-.23-.48-.33-.08-.13-.02-.37-.04-.39-.06-.07-.45.37-.88-.22-.3-.42-.13-.71-.24-.96s-.41-.56-.55-.9c-.29-.68-.04-1.54-1.12-1.31l-.15-1.39.29-.07Z"/>
  <path class="st0" d="M82.93,143.45c.05.04.03.44.33.23.02-.01-.02-.25.11-.29.62-.15,2.91.68,3.72.67-.47.21-1.36.46-1.85.51-.64.07-3.45.12-3.92,0-.12-.03-.08-.28-.16-.28l-.37.13-.14-.67-.6-.06c.19-.56.52-.29.78-.34.58-.12,1.55-.31,2.11.1Z"/>
  <path class="st0" d="M26.06,73.55c-.23.47.13.72.15,1.09.05.82-.35,2.68-.61,3.49-.04.12-.27.12-.29.21-.04.3.35.88.08,1.22-.36-.9-1.34-2.36-.97-3.31.14-.35.58-.56.46-1.02-.04-.15-.58-.05-.59-.37.25-.06.85-.08,1.03-.22.24-.19.18-1.2.73-1.1Z"/>
  <path class="st0" d="M130.35,54.47l.29-.73c-.14.58.27.37.39.48.16.15.2.39.41.55.44.32,1.19.25,1.54.51.17.13.45.75.62,1s.56.18.42.68c-.27.08-.35-.22-.54-.27-.23-.05-.45.15-.67.1-.17-.04-1.84-.93-2.07-1.1-.09-.07-.27-.05-.32-.1-.24-.26-.58-.93-.72-1.27-.13-.31.1-.8-.36-.74.16-.56,1.03-.58.85.04-.11.36-.55.46.18.84Z"/>
  <path class="st0" d="M32.07,90.72c.32.89.88,1.71,1.41,2.48.1.15.35.19.43.32.16.24-.35.56.59.57l.21,1.77c-1.08.06-.25-1.02-.59-1.61-.2-.04-.34.06-.45.21-.22.3.04.76-.43.67l.15-.79c-.71-.27-.33-.7-.44-1.16-.04-.15-.3-.14-.36-.24-.03-.05.08-.88-.38-.52-.16.12-.06.59-.36.22-.2-.81-1-1.53.22-1.91Z"/>
  <path class="st0" d="M130.43,100.2c-.11.25-.48.62-.37,1.08-.36.05-.33-.05-.28-.36.1-.67.51-1.14.68-1.67.5-1.53.95-3.75,1.77-5.13.17-.28.42-.3.46-.35.06-.09-.14-.37-.1-.6.04-.21.44-.9.7-.99.03.66-.37,1.21-.53,1.71-.67,2.09-1.38,4.24-2.32,6.31Z"/>
  <path class="st0" d="M116.13,135.18l-1.17,1.4c-1.16.73-2.61,2.42-3.83,2.94-.31.13-1.14-.2-1.6.07l2.66-1.52,3.94-2.88Z"/>
  <path class="st0" d="M59.51,128.72l-.29,1.03c.6.21.59-.3.8-.38.2-.07.86.18.82-.35l.29.22-1.1,1.35c-.71-.65-1.98-.42-2.37-1.36-.03-.72,1.36-.57,1.85-.51Z"/>
  <path class="st0" d="M132.55,53.15l1.03,1.69c.51.54,1.72,1.26,1.85,1.97.17.92-1.46,0-1.31-.68l-2-2.62.44-.36Z"/>
  <path class="st0" d="M36.18,100.84c.4-.48.7,1.56.71,1.71.05.59-.13,1.52-.07,1.9.03.23.83.73.16,1.24-.62-.36-.35-.64-.44-1.03-.25-1.08-.18-1.28-.21-2.27-.02-.5-.26-1.01-.16-1.54Z"/>
  <path class="st0" d="M98.52,19.55l-.02.72c-1.59.25-3.09.83-4.68,1.19l.74-.88.36.3c.41-.3.88-.27,1.31-.46.23-.1.7-.54.74-.54.1,0,.24.27.42.25s.67-.77,1.12-.57Z"/>
  <path class="st0" d="M61.41,45.96c.04.24-.19.16-.33.11-.45-.13-1.19-.36-1.28-.85l.6-.06.14-.67,1.83-.42c.71.75-1.28,1-1.4,1.52l.44.37Z"/>
  <path class="st0" d="M136.51,65.92c-.64-.32-.46-1.3-.63-1.94-.22-.86-.66-1.71-.69-2.61,1.29,1.12,1.28,2.98,1.32,4.55Z"/>
  <path class="st0" d="M119.94,49.78c.07.77-.79.86-1.36.55-.23-.12-1.42-1.59-1.28-1.73l2.64,1.18Z"/>
  <path class="st0" d="M128.62,50.47c.16.1.37,0,.55.04-.13.79.69.86,1.09,1.33.19.22.59.98.68,1.3-.16.16-1.72-1.05-1.66-1.43-.63-.05-.83-.95-.83-1.5.24-.06.09.2.17.26Z"/>
  <path class="st0" d="M135.34,104.51l.43-3.16-.29-.15-.15.15-.29-.29c.2-.4.62-.01.81-.21.33-.35.01-1,.44-1.04.28.19.21.31.16.59-.17.91-.38,1.89-.6,2.79-.09.38-.2,1.09-.52,1.32Z"/>
  <path class="st0" d="M124.93,34.22l-.67-.14c.15-.68-1.73-2.77-1.66-3.14l.34-.39c.18,0,1.03,1.65,1.15,1.91.06.11-.04.3.03.43.04.08.91,1.25.8,1.33Z"/>
  <path class="st0" d="M33.05,98.45s-.19.04-.23.15c-.17.49.05,1.07-.6.91l-.44-2.35c.68-.19,1.59.57,1.27,1.28Z"/>
  <path class="st0" d="M78.13,59.02l-.96-.44-.51.58c-.56-.57-.68-.03-1.14.1-.42.12-.91.19-1.35.19l1.53-.89c.84-.1,2.32-.83,2.43.45Z"/>
  <path class="st0" d="M105.27,19.26l-.07.29-3.59.29c.33-.76,1.23-.46,1.97-.6.63-.11.87-.57,1.7.02Z"/>
  <path class="st0" d="M26.5,81.62s.03.24.15.36c.17.18.75.67.8.81.05.14-.11.39-.06.43.03.03.31,0,.5.16.12.1.78,1.05.67,1.17-.65.05-.41-.56-.44-.58-.1-.06-.41.04-.67-.14-.48-.34-.76-1.62-1.38-1.99.09-.13.31-.31.43-.22Z"/>
  <path class="st0" d="M23.8,73.34s-.2.04-.23.16c-.08.3.2.74-.29.63-.15-.49-.28-1.06.01-1.53.09-.14.33-.18.38-.27.1-.16.01-.78.41-.69.6.13-.16,1.45-.28,1.7Z"/>
  <path class="st0" d="M23.27,77.95l-.44-.15c-.05.8.82,1.04,1.17,1.61h-.86c-.18-1.04-1.2-1.06-.75-2.35.63-.08.96.24.88.88Z"/>
  <path class="st0" d="M37.79,102.16c-.36-.1-.28-.55-.43-.78-.11-.16-.37-.19-.49-.43-.23-.48.3-.61-.39-.94-.19-.54.58-1.39.66-.63.11,1.06.43,1.75.65,2.78Z"/>
  <path class="st0" d="M120.06,39.48c-.41.04-.27.52-.49.76-.35-.72-1.24-.95-1.39-1.76.07-.07,1.8.52,1.9.81l-.03.2Z"/>
  <path class="st0" d="M128.3,46.84c-.32-.04-.51-.28-.73.07l.58,1.03c-.11.3-.84-.72-.87-.78-.16-.39-.14-1.06-.3-1.5.23-.22,1.47.71,1.32,1.17Z"/>
  <path class="st0" d="M80.01,146.51c.05.03.24.44.32.55-1.17-.14-2.34.01-3.52-.29l1.83-.29c.28-.01,1.2-.06,1.36.03Z"/>
  <path class="st0" d="M27.82,81.91c-.39-.05-2.1-1.85-1.91-2.05l.88-.44c.05.42.16,1.13.33,1.5.19.4.68.53.69.99Z"/>
  <path class="st0" d="M129.47,61.66l-.42-1.85c.07-.48-.15-1-.15-1.43,0-.11.07-.7.28-.67-.1.29.3.82.3.95v3.01Z"/>
  <path class="st0" d="M121.99,134.15c.65-1.42,1.39-2.88,2.34-4.11-.46,1.49-1.37,2.92-2.34,4.11Z"/>
  <path class="st0" d="M136.81,82.06c-.1,1.03-.33,2.04-.95,2.93-.6-.59.17-1.34.42-1.92.06-.14.19-1.37.53-1.01Z"/>
  <path class="st0" d="M101.9,140.76c-.11.26-.66.39-.91.48-.81.29-1.75.57-2.61.69-.08-.46.14-.22.36-.29,1.04-.33,2.03-.98,3.16-.88Z"/>
  <path class="st0" d="M90.31,146.77c-1.03.03-1.98.12-2.98.32-.23.05-.29.26-.53-.1.27-.45.66-.22.93-.27.84-.18,1.22-.26,2.12-.2.22.01.4-.06.47.25Z"/>
  <path class="st0" d="M136.22,90.57c-.29.91-.32,1.79-.44,2.72-.03.2-.07.43-.29.22-.25-.56.02-1.03.1-1.58.06-.43-.17-1.23.63-1.35Z"/>
  <path class="st0" d="M30.17,88.81l.58-.29-.1.44h-.71s-.21-1.61-.21-1.61c1.35-.03.31,1.29.44,1.47Z"/>
  <path class="st0" d="M53.34,45.81c-.92.22-2.01.86-2.93.59l.96-.43c.52-.07,1.06-.25,1.57-.34.22-.04.29-.15.4.19Z"/>
  <path class="st0" d="M100.87,19.55l-.17.72-.56.02c0,.32.03.77-.45.73l.31-1.44.86-.02Z"/>
  <path class="st0" d="M138.42,87.93l-.15,1.83-.5,1.4c-.32-.53.17-1.43.3-2.06.06-.31-.16-1.26.36-1.17Z"/>
  <path class="st0" d="M136.81,58.43l.59,1.61c-.56-.02-.76-.34-.76-.86l-.41-.02c-.08-.48.03-.81.58-.73Z"/>
  <path class="st0" d="M84.73,23.22c-.78-.29-1.63-.25-2.42-.44-.22-.05-.26.1-.22-.29.64-.21,1.28.22,1.99.3.43.05.93-.46.65.43Z"/>
  <path class="st0" d="M136.66,98.79l-.45-.22-.11-.27c.41-.47.22-1.28.85-1.57l-.29,2.05Z"/>
  <path class="st0" d="M130.46,88.27s.04.24.13.25c.24.03.52-.26.79-.09l.29.67c-.76.08-1.31-.23-1.76-.81.07-.15.42-.09.55-.03Z"/>
  <path class="st0" d="M24.74,69.73l1.02-2.64c.27.36-.58,3.11-1.02,2.64Z"/>
  <path class="st0" d="M34.86,98.79c-.46.73.89,2-.14,2.35-.19-.63-.19-1.32-.15-1.98.02-.29-.12-.42.29-.36Z"/>
  <path class="st0" d="M137.1,96.15c-.76-.61.31-1.75.37-2.49.35.24.15.29.1.54-.14.66-.25,1.32-.47,1.96Z"/>
  <path class="st0" d="M33.1,90.13c0,.6.7.62.44,1.47-.71-.03-1.27-1.37-.44-1.47Z"/>
  <path class="st0" d="M142.09,62.83l-.57-.17c-.25-.31.46-1.57.64-1.59.59-.07-.18.78-.19.82-.04.23.21.64.11.94Z"/>
  <path class="st0" d="M43.13,88.91c.08.11.33.16.39.27.06.13.06.47-.22.36-.25-.09-1.31-1.13-1.1-1.32.74-.09.68.35.93.68Z"/>
  <path class="st0" d="M137.54,56.82c-.96-.29-.82-1.31-1.17-2.05.34-.06.33.15.43.37.25.55.48,1.13.74,1.68Z"/>
  <polygon class="st0" points="98.67 128.43 97.39 128.98 95.88 129.01 98.67 128.43"/>
  <path class="st0" d="M110.84,141.78l-2.64,1.32c.6-.69,1.74-1.22,2.64-1.32Z"/>
  <path class="st0" d="M110.55,35.39c-.5-.1-1.05-.09-1.54-.15-.27-.03-.24.06-.22-.29l.93-.27.83.71Z"/>
  <path class="st0" d="M109.38,19.26c.51-.36.99-.53,1.46.07-.18.43-1.63.22-1.46-.07Z"/>
  <path class="st0" d="M125.47,44.54s.59.45.61.48c.08.09.38.72.31.79-.61-.07-.75-.86-1.32-1.1-.06-.33.22-.26.4-.17Z"/>
  <path class="st0" d="M118.33,139.43c.14-.6.62-.99,1.17-1.17.19.21-.68,1.49-1.17,1.17Z"/>
  <path class="st0" d="M127.86,118.74c.03.5-.53.24-.37.87l-.8.89c.24-.6.4-1.77,1.17-1.76Z"/>
  <path class="st0" d="M50.26,46.69c-.47.18-.9.95-1.46.37l.99-.63.48.27Z"/>
  <path class="st0" d="M108.94,137.96c-.59.29-1.05.7-1.76.74l1.42-1,.34.27Z"/>
  <path class="st0" d="M79.75,143.4c-.1.27-.87.16-1.1.14-.2-.02-.88-.07-.95-.29.68-.13,1.45-.2,2.05.15Z"/>
  <path class="st0" d="M128.3,118.01c-.24.01-.33.07-.29-.22.05-.37.65-1.36,1.03-1.54l-.73,1.76Z"/>
  <path class="st0" d="M47.58,133.32c.1.09.88,1.02.78,1.12-.46-.21-.77-.75-1.32-.73l.15-.59s.33.14.39.2Z"/>
  <path class="st0" d="M84,146.77c-.14.27-.84.43-1.1.44-.3.02-.6.04-.8-.23l1.91-.22Z"/>
  <path d="M115.1,108.77c.15.45-.45.64-.45.95,0,.21.39.5.5.83.45,1.4-.87,2.37-1.82,3.15.51,1.06.8,2.33.89,3.51.01.19-.12.4-.12.59.01.37.17,1.44.1,1.73-.25.94-.89-.18-1.3-.41l.44-.07-.44-.95c1.2.11-.21-.62-.29-1.03-.21-1.04.7-1.93,0-2.57l-.37,1.17c-.14-.43-.32-.9-.07-1.32l-2.49,1.03.15.58c-.63.05-1.04-.55-.36-.8.46-.01,2.18-.97,2.35-1.25.13-.21-.13-.51-.08-.73l.95.25c.73-.66,1.49-.94,1.84-1.93.37-1.07-.23-.82-.49-1.45s.85-1.49,1.07-1.28Z"/>
  <path d="M44.25,102.75l-.13.37.41.08.16,1.31c.49-.3.7.16,1.07.33.19.08.46-.1.61.1s.82,2.03.66,2.21c-.8.16-1.39-1.55-1.72-1.61-.65-.12-1.51-.03-1.52.79l.45.31-.02.35c-2.54,1.96-1.39-.74-.7-2.07.07-.13.3-.11.28-.18-.33-.28-.3-.96-.48-1.21s-.91-.74-.96-.79c-.11-.12.16-.72-.47-1.07-.17-.1-.47-.07-.58-.15-.22-.17-.08-.57-.16-.65-.1-.1-.47.12-.42-.16l.69-.42c.47-.13.53.43.78.64.28.22.68.19.96.51.33.37.46,1.57,1.09,1.33Z"/>
  <path d="M128.59,93.36c.08-.51.29-1.12.59-1.54.2-.28,1.8-1.8,2.05-1.54.21.97-.69,1.05-1.31,1.55-.66.53-.55.75-.78,1.42-.07.21-.32.32-.34.47-.1.62,1.08,1.87-.2,2.13-.15-.78-.06-2.44-1.31-1.97-.09.03-1.07.74-1.11.8-.35.53.35.3.22.74h-1.17c-.06-.06.58-1.23.63-1.28.16-.16.98-.3,1.12-.72-.57-.66-.73-1.32-.88-2.17l.3-.31c-.22-.09-1.03-1.14-.51-1.25.4-.12,1.06,1.04,1.17,1.33.4,1.11-.45,2.14,1.54,2.34Z"/>
  <path d="M118.91,103.04c.65-.33,2.18-.45,1.91.66-.12.48-.52-.15-.69-.2-.36-.09-1.95.61-2.16.86-.13.16-.17.52-.37.8-.3.42-.95.69-1.16,1.04-.06.1-.59,1.24-.61,1.31-.11.64.67,1.07-.07,1.24-.29-.25-.52-.55-.52-.95,0-.15.53-1.89.61-2.04.27-.49.9-.48,1.12-.72.16-.17.21-.69.55-.99.22-.19.64-.27.66-.3.05-.07-.18-.4-.13-.62.04-.16.38-.43.5-.68.13-.28.38-1.32.72-1.33.7-.02-.49,1.78-.37,1.9Z"/>
  <path d="M120.78,97.42c-.18.16-.57.14-.67.43s.02.75-.06,1.11c-.16.76-.56,1.21-.26,2.02-1.38-.4-.03-1.45-.04-2.16,0-.37-.47-.78-.19-1.23,1.03-.13,1.04-1.28,1.62-2.05.67-.89,1.75-1.29,2.42-2.2.2,1.1-1,1.39-1.61,1.98s-.91,1.8-1.22,2.08Z"/>
  <path d="M124.24,100.51c.14.17.64.22.54.63-.67-.26-.95-.06-1.38.45-.17.2-.75,1.53-1.11,1.16s1.29-1.99,1.32-2.28c.02-.24-.38-1.3-.53-1.53-.22-.33-.49-.38-.72-.6-.48-.47.26-.5.67-.37,1.19.38.7,1.9,1.21,2.54Z"/>
  <path d="M45.42,104.22c.12-.37-.32-.97-.26-1.23.02-.09.88-1.41.99-1.5.5-.41,1.07-.13,1.01.43-.02.2-.25.35-.31.54-.32.87-.19.43-.74,1.04-.18.2-.18.79-.67.72Z"/>
  <path d="M120.21,109.92l-.56.02c.05-.39.36-1.74,0-1.99-.76-.21-1.25-.08-1.84.38-.3-.19-.18-.35,0-.57.65-.75,1.41-.26,2.27-.39.32.24.41,2.39.12,2.56Z"/>
  <path d="M129.33,98.2c-.49.15-.4-.31-.72-.38-.45-.1-1.07.11-1.62-.14-.62-.28-.63-1.39-1.69-.95-.17-.01-.16-.51.3-.59.98-.17,1.37.9,2.12,1.11s1.49-.2,1.62.95Z"/>
  <path d="M120.97,103.63c.12-.13.43.23.55.26.3.07.69-.04.92.1.18.1.21.52.45.73.39.33,1.21.38,1.6.75-.21.33-.63.13-.93.06s-.94-.29-1.17-.44c-.42-.27-.51-.85-.67-.94-.12-.07-.38.14-.6.01-.15-.09-.21-.45-.15-.52Z"/>
  <path d="M118.76,63.73c.07.1.12.48-.21.43-.35-.05-.63-.39-.98-.49-.29-.09-1.67-.49-1.85-.51-.6-.07-1,.43-1.5-.39.39-.53.68.04,1.02.16.41.14,1.44.14,2.03.3.21.06,1.44.44,1.48.5Z"/>
  <path d="M127.4,99.4l.17.56c-.43-.12-.94-.03-1.31.23-.52.37-.41,1.03-1.04,1.09-.09-1.18,1.05-2.08,2.18-1.88Z"/>
  <path d="M50.27,101.72c.96.21.29.97.21,1.61-.03.24.25,1.15-.28,1.03-.61-.14-.17-2.2.07-2.64Z"/>
  <path d="M122.58,107.3c-.94-.51-1.1.71-1.9.88-.29-.35,1-1.55,1.12-1.59.6-.21,1.14.05.78.71Z"/>
  <path d="M124.05,96.29c-.47.04-.98.11-1.44.25-.3.09-1.1.74-1.2.26-.13-.61,2.33-1.21,2.64-.51Z"/>
  <path d="M119.94,106.86c-.07-.52-.57-1.35-1.18-1.32.03-1.17.96-.31,1.28.26.22.38.57,1.08-.11,1.06Z"/>
  <path d="M125.94,101.74c.14.22-.02,1.54-.57,1.45.1-.59-.08-.95-.29-1.47l.86.02Z"/>
  <path d="M109.97,115.66c.84.34.2,1.39-.22,1.9-.68-.65.33-1.21.22-1.9Z"/>
  <path d="M62.14,31.43c-.03.7-.99.47-1.37.61-.2.08-.18.35-.35.41-.38.14-1.2.23-1.65.39-.38.14-.95.78-1.61.64-.05-.27.13-.36.31-.5.4-.29,4.49-1.72,4.68-1.56Z"/>
  <path d="M36.91,46.84l-.44-.15c-.14.68-.7,1.92-1.47,1.76-.1.09.23.73-.29.59-.38-.76.56-.86.67-1.02.14-.2,0-.53.1-.71.04-.07.97-.71,1.07-1.06l.37.58Z"/>
  <path d="M111.32,32.57c.16.1.5,0,.63.18l.06.22c-.09.94-1.1.57-1.61.15-.07-.28.67-.49.29-.95.5-.16.47.31.62.4Z"/>
  <path d="M108.06,32.17l-.74-.07-1.9-.74c.35-.52.64.04.96.07.65.06.52-.13,1.3.31.19.11.45.06.38.43Z"/>
  <path d="M55.4,34.07l-.09.44c-.41-.22-2.07,1.06-2.25.88-.13-.13.02-.43.25-.55.17-.09,2.02-.85,2.09-.77Z"/>
  <path d="M113.63,34.96l.02-.57c.93-.44,1.51.26.79,1.01-.31-.36-.26-.67-.81-.44Z"/>
  <path d="M116.71,35.1l-.29.88c-.58-.54-.5-.44-1.17-.15l.37-.88c.46.06.61.41,1.1.15Z"/>
  <path d="M43.81,39.36l-.52.73-.44-.43-.81.44c.22-1.09,1.05-.49,1.76-.73Z"/>
  <polygon points="34.57 52.12 33.42 53.84 32.96 54.18 33.18 53.45 34.57 52.12"/>
  <path d="M44.79,38.58c-.11.13-.73.44-.83.34l-.08-.74.44.29.22-.88c.58-.02.51.65.25.98Z"/>
  <path d="M113.03,33.5c.25.26-.15,1.34-.73.65-.44-.53.41-.99.73-.65Z"/>
  <path d="M36.04,50.65c-.78-.12-.32.76-1.03.59l.29-1.17c.36-.06.75.18.73.59Z"/>
  <path d="M42.93,40.24c.12.11-.95,1.55-1.17,1.32.02-.3.79-1.66,1.17-1.32Z"/>
  <path d="M119.02,29.42c.15.13.5,1,.12.98-.23-.01-.18-.69-.36-.81-.07-.05-.88.21-.52-.51.06,0,.73.31.76.34Z"/>
  <path d="M58.48,133.86c.1.57-.61.11-.97.42-.33.29-.44,1.3-.94,1.33v-1.32s1.91-.44,1.91-.44Z"/>
  <path d="M117.15,129.6c.11.11-.93,1.26-1.05,1.37-.19.18-.19.32-.56.24-.21-.19,1.4-1.82,1.61-1.61Z"/>
  <path d="M48.8,126.52v.77s.59.55.59.55c-.82.32-1.74-1.13-.59-1.32Z"/>
  <path d="M47.48,126.96c-.11.74-.74,1.2-1.47,1.32l.33-.47,1.13-.85Z"/>
  <path d="M42.49,126.96l.59-.47c.18.1.81-.42.87-.04.07.41-1.17.7-1.47.51Z"/>
  <path d="M57.3,131.8l-.22,1.03-.15.13-.66-.13c-.13-.11.91-1.16,1.03-1.03Z"/>
  <path d="M67.43,54.62c-.25.93.51,1.05.73,1.76-.9-.13-2.33-1.53-.73-1.76Z"/>
  <path d="M50.31,115.32c.15.12.57.19.54.27-.76,1.48-1.09-.07-1.76-.3-.2-.07-.68.67-.73-.36l-.44.15c.12-.39-.25-.69-.3-.97-.13-.83,1-1.15,1.18-1.82,1.03.3.9,1.41,0,1.83.28.54.87.58,1.23.83.16.11.19.31.28.37Z"/>
  <path d="M139.6,67.83l-.23.43c-.69.21-.77,1.02-1.53,1.18-.02-1.37.51-1.64,1.76-1.61Z"/>
  <path d="M129.03,43.76l-.64-.76-.39-.86c.64.4,1.11.77,1.02,1.61Z"/>
</svg>