<?xml version="1.0" encoding="UTF-8"?>
<svg id="Layer_1" xmlns="http://www.w3.org/2000/svg" version="1.1" viewBox="0 0 160 160">
  <!-- Generator: Adobe Illustrator 29.4.0, SVG Export Plug-In . SVG Version: 2.1.0 Build 152)  -->
  <defs>
    <style>
      .st0 {
        fill: red;
      }
    </style>
  </defs>
  <path class="st0" d="M83.61,124.61c-1.36-.86-2.97-1.92-4.32-2.71-.52-.3-1.32-.38-1.76-.78-.28-.25-.28-.7-.42-.82-.14-.11-.44-.07-.58-.2-.71-.61-1.21-1.41-2.35-1.32-.02.23-.1.49-.06.72.06.32.59.18.4.64l-1.15-.04c.23.45.74.5,1.06.78.52.46.62,1.19,1.54,1.07-.62.83.83,1.48,1.01,2.1.07.25-.23.48-.01.74.24.28,1.16.9,1,.03l.3.28c-.27.66-1.04.45-1.6.97-.26.24-.42.69-.57.77-.23.13-1.33.25-1.75.43-3.84,1.6-7.88,3.48-11.64,5.15-4.11,1.83-8.25,3.54-12.32,5.44-3.31,1.54-6.83,3.33-10.35,4.72-7.61,3.01-15.59,5.51-22.73,9.71l-9.87,4.3c.67-1.22,1.36-2.44,2.07-3.64,1.1-1.85,2.24-3.77,3.38-5.62,1.57-2.55,4.14-7.19,5.93-9.3,1.39-1.64,2.65-3.38,3.99-5.14.54-.71,1.09-1.65,1.72-2.4.46-.54,1.32-1.1,1.63-1.5.52-.68,1.37-2.44,2.2-2.84.29-.14.84.1,1.12-.44.22-.43-.65-.11-.43-.54.23-.46.75-.18.95-.3.45-.27.82-1.49,1.13-1.94,1.83-2.63,4.08-5.14,5.98-7.76,2.95-4.07,5.72-8.71,8.81-12.59.24-.3.55-.56.81-.85.3.48.46.6,1.02.44.06.53-.89.42-1.06.81l.09.49.48.13,2.56-3.68c.69.11,1.21,1.51,1.96,1.05.8-.48-.76-1.67-.98-2.21.05-.48.61-.63.75-1.05.21-.68.05-1.12-.13-1.75l1.93,1.21c1.47-.79-1.05-.97-1.31-1.79l-.75.24c.57-.61-.47-1.31-.98-1.67-6.75-4.66-13.71-11.19-19.99-16.71s-11.79-11.94-17.99-17.62c-1.93-1.77-4.17-3.22-5.91-5.19-.03-.38.19-.21.43-.2,2.01.07,4.1.05,6.09.17.34.02.65.27,1.11.28s1-.38,1.22-.35.34.3.5.35c1.15.37,3.18-.07,4.41.02.85.06,1.52.46,2.13.52.31.03.59-.21.97-.18,3.52.25,6.99.82,10.48.81,2.81,0,5.77-.01,8.58.11.22,0,1.82.2,1.94.24.08.03.31.24.15.33l-.22.48.75-.09-.27-.52c.92-.4,1.95.49,2.65.6.28.04,2.73-.28,2.94-.4.32-.17-.12-.58-.27-.68-.8-.53-1.19-.21-1.86-.29-9.23-1.07-18.44-.96-27.59-2.87l-7.34-1.63c.32-.52,1.06-.15,1.57-.17,5.92-.32,11.81,1.12,17.64,1.8,1.01.12.87.7,1.32.89.06.03,1.29.21,1.38.21.38,0,.67-.39.97-.46,1.07-.25,1.66.41,2.5.52.91.12,2.23.08,3.26.17,5.35.45,10.76,1.33,16.14,2.11.6.09,1.56.78,1.6-.32-.58-.23-1.3-.35-1.2-1.12.91.27,1.05-1.17,1.48-1.41.26-.14.71.04.94-.31.48-.72-.32-1.11-.24-1.4l2.89-4.02.26-.05.38.3c-.39.61-.6,1.11-.35,1.84,1,.85,1.97-2.98,2.47-3.48.26-.84.63-2.3,1.21-2.94.19-.21.58-.27.67-.47.15-.32-.05-.73.01-1.09.07-.42,1.34-2.65,1.65-3.14.95-1.51,1.42-2.55,2.13-4.22.14-.33,1.17-1.45,1.29-1.75.28-.7.19-.65.6-1.47.26-.52.33-1.15.59-1.68,2.34-4.94,5.05-9.71,7.73-14.49l.33-.23c-.29,1.63-.66,3.29-1.05,4.91-.3,1.26-.59,2.6-.92,3.86-.22.84-1.19,1.93-.44,2.69.72-.66.57-2.39.97-2.92.16-.22.61.13.93-.38.22-.35.02-.6.09-.83.08-.28.47-1.01.66-1.57.04-.11.78-1.28.17-1.09-.37.11-.44.87-.8.49-.11-.75.38-1.32.53-1.94.33-1.32.49-2.72.79-4.03.08-.38,1.15-3.27,1.28-3.41.28-.31.57.05.56.14,0,.04-.45.35-.54.64-.11.36.09.66.04.95-.04.22-.31.38-.38.64-.47,1.66-.97,3.43-1.11,4.98-.02.24-.96.71-.18,1.38.26.03.57-1.85.71-2.27.56-1.73,1.07-3.31,1.62-5.03.11-.34.06-.83.18-1.08.16-.34.65.18.91-1.1.17-.86-.08-1.62.16-2.4.37-1.2,1.31-2.15,1.86-3.06.18-.3.07-.73.44-.94.25.03.79,4.5.81,5,.06,1.32-.37,4.03-.15,5.04.05.24.54.44.74.9.24.57.12,1.18.22,1.76.14.79.22,1.48.34,2.26.68,4.6,1.4,9.31,1.82,13.88.07.77.28,1.47.2,2.23l.59.41c.04.14-.32-.08-.38.28-.11.63.01,1.72-.08,2.4.63.18.32-1.07.49-1.43.27.15.36.78.42,1.07,1.17,5.13,1.41,10.43,2.05,15.63.08.63.81,1.31-.14,1.71-.58.25-1.12-.04-1.69.12-.25.07-.25.02-.24.35l2.61.35.47,2.64,1.39.63.27-.36c-.59-.68.63-.99.43-2.02,1.09,0,2.44-.12,3.51-.07.51.02.92.23,1.32.26,1.24.08,2.58-.05,3.85.25-.17.28-1.01.34-1.29.34-.46,0-.86-.19-1.22-.19-.66,0-2.7-.05-3.17.09-.24.07-.35.15-.33.42.71.48,1.23.02,1.74.03,1.45.04,2.85.13,4.29.15,1.07.01,2.17.16,3.25.15l.35-.77c.44-.06.38.48.59.64.42.33,1.64,0,2.23,0,11.37.1,22.68.37,34.12,1.94.94.13,2.04.61,2.99.81.22.31-.93,1.36-1.17,1.6-3.19,3.2-6.63,6.25-9.93,9.33-2.54,2.37-4.8,4.83-7.48,7.19s-6.32,5.74-9.17,7.49c-.32.2-1.14.36-1.19.4-.3.22-.46.94-.66,1.1-.19.15-.91.16-1.09.31-1.47,1.24-3.13,2.4-4.74,3.65-.45.35-1.4.78-1.77,1.14-.26.25-.4.82-.44.85-.11.06-.45-.17-.66-.15-.43.05-.81.82-1.24,1.02.46.66.43.05.85-.23.19-.12.85-.47,1.02-.31-.32.18-.36.8-.47.9-.07.07-.39.02-.56.13-.73.49-1.25,1-1.91,1.54-1.93,1.59-4.19,3.52-6.41,4.99-.71.47-2.46,1.05-2.75,1.77-.12.3.13.32.36.26.29-.08,1.58-.88,1.94-1.11,1.01-.63,2.32-1.85,3.27-2.42.34-.21.89-.25,1.22-.52.38-.33.58-1.12,1.26-1.18.28.08,1.17,1.7,1.12,2.08.93.8.23,2.16,1.82,2.2.04.28-.31.05-.36.22-.24.72.83,1.17.97,1.53.05.13-.16.33-.15.5,0,.15.51,1.3.64,1.41s.43.1.46.15c.03.03-.16.34-.1.59.17.79.9.95,1,1.14.22.42-.38,1.21.73,1.5.29.08,1.09-.16,1.13.28.02.16-.2.45-.36.29l-.38-.29-.31.54c.29.42.73.49.9.02l.67.65c-.02.56-.6.01-.75-.15l-.42.34c.13.34.59.23.75.37.21.18.34,1.33.45,1.5.12.19.44.16.51.25.06.08.21,2.08.8,1.38.38-.46-.28-1.21-.1-1.34l.49.05c-.33.86.77.96.81,1.66.05.76-.77-.52-.95-.35-.21.86.3,1.05,1.05.94l-.58.76c.64.06.86.46.71,1.07-.6-.02-.86-.98-1.28-1.13-.38-.13-.34.45-.28.67.09.38.98,1.23,1.27,1.66.33.5,1.45,2.31,1.6,2.74.12.34.02.86.28,1.26l-.49.04c-.42,1.21,1.02,1.55,1.55,2.38.2.32.43.84.55,1.2.15.44.52,1.83.56,2.24.03.31-.25.32-.35.21-.04-.04-.47-.9-.51-1.01-.29-.77-.49-2-.89-2.71-.11-.2-.53-.48-.78-.49-.3.27.62,2.1.82,2.55.27.62,1.28,2.36,1.44,2.86.1.32,0,.7.1.96s.46.32.5.42c.2.45-.42.99.7,1.45l-.03.33-.35.12-.02.32.83,1.34c-.44,0-.41-.47-.68-.72-2.24-1.96-3.82-4.86-6.02-7.01l-2.36-3.84c-.39-.22-.35.86-.32,1,.09.53.65.55.87.83.52.63,1.07,2.07,1.75,2.73.18.18.53.19.56.22.02.02-.24.23-.08.56.13.26.79.99,1.03,1.28,1.33,1.59,2.89,3.27,4.18,4.99.84,1.12,1.36,1.93,1.58,3.2.05.31.43.45.5.79.68,3.04,1.31,6.16,1.88,9.21.11.56.52,1.25.39,1.99-2.87-1.39-5.58-3.1-8.32-4.71-.45-.26.07.79-.37.45-.17-.13-.19-.48-.34-.6-1.04-.81-2.4-1.27-3.64-1.85-.33-.16-.94-.88-1.37-1.13-8.21-4.69-17.2-8.71-25.03-13.7-1.96-1.25-3.93-2.64-5.86-3.86l.7-.15,1.38-.78c-.38-.35-2.46.46-2.08.93ZM89.93,14.11c-.79-.06-.36,1.31-.52,1.76.84-.28.53-1.09.52-1.76ZM79.72,27.36c-.41-.12-.3.03-.44.28-.46.86-.45,1.65-.7,2.48-.09.29-1.05,1.82-.46,2.02.25.08.38-.15.45-.37.25-.85.39-1.7.63-2.55.16-.58.64-1.1.52-1.86ZM55.59,98.41c.31-.28-1.07-1.39-1.52-1.16l-.05.49.88.09.19.62.51-.04ZM115.51,112.86c-.31-.44-.32-1.27-.46-1.65-.08-.2-.28-.36-.37-.59-.12-.32-.67-2.53-1.23-2.07-.25.76.36,1.12.62,1.66.36.76.53,1.38.73,2.08.34,1.15,1.47,3.53,2.6,3.96-.43.71.09,1.2.85,1.25l-.05.53.48.17c.16-.71-.86-1.31-.94-1.71-.17-.9.65-1.13-.05-2.19-.66-1.01-1.82-.96-2.17-1.45ZM119.16,118.93c-.66.34-.54.96-.26,1.55.38.33,1.11-.02,1.04-.52l-.78-1.02ZM120.85,121.88c.38-.52-.93-1.55-.67-.65.07.23.33.35.23.64l-1.22-.96c.07.6.58.96.8,1.3.09.14.15.78.38.81.48.05.17-.93.19-1.04.01-.09.28-.06.3-.1ZM69.41,116.65c-.12-.1-.42-.05-.6-.19-.26-.19-.34-1.02-.89-1-.18,1.25,1.65,1.19,1.56,2.32.66.35-.03-1.08-.08-1.13ZM72.88,119.97l-1.1-1.42-1.62-.86c.04,1.03,1.1,1.1,1.62,1.45.26.18.54.86,1.1.83Z"/>
</svg>