<?xml version="1.0" encoding="UTF-8"?>
<svg id="Layer_1" xmlns="http://www.w3.org/2000/svg" version="1.1" viewBox="0 0 160 160">
  <!-- Generator: Adobe Illustrator 29.4.0, SVG Export Plug-In . SVG Version: 2.1.0 Build 152)  -->
  <defs>
    <style>
      .st0 {
        fill: blue;
      }

      .st1 {
        fill: red;
      }
    </style>
  </defs>
  <rect class="st1" x="37.81" y="37.8" width="83.65" height="83.65"/>
  <path class="st0" d="M90.52,11.05v1.98s1.32,0,1.32,0l-.99,2.64,1.33.17v2.14c-2.1-.26-2.31,1.99-.34.33l-.33,3.3.99-.33-.35,1.78.69.36c-.73,0-1.01,1.81-.92,2.28.15.79,1.71.62,1.25,1.85h-1.65c-.05.95,1.5.79.16,1.98l-.82-.66c-.03,1.17,1.27,1.93,1.51,2.95.1.41-.52.69-.47,1.11.11.87,1.38,1.13,1.26,1.71-1.89.33-.92-.76-.99-.82-.41-.39-.8.23-.85.66-.13,1.02,1.28,1.7-.14,2.96l1.25.83c-.53.93-1.1,2.65-.26,3.46l-.68.19.35.8-1.32-.33,1.32,1.65-1.32-.17,1.65,1.82c-.08.82-1.65-.3-1.32.98h1.32s-.65,1.64-.65,1.64c1.58.28.32,2.29,2.63,1.99.15-.56-.61-.17-.67-.49-.23-1.27,2.6-2.48,2.81-.83.53-.9,1.24-.81,2.04-1.12.18-.07-.11-.82,1.09-.19v-1s1.65.99,1.65.99l-.33-1.98c1.96,2.46,1.97.03,2.14,0,.67-.13,1.31-.1,1.16.66l1.32-1.98,1.47.66.5-.66-.66-.17.83-.82c.6-.24.38,1.29,1.63.31.25,1.35,1.58.3.84-.15-.46-.28-1.22.19-.99-.82l1.98.66-.65-.99c-.54-1.44,5.67.17,6.27.33l-1.32-.98c1.02.03,1.82-.63,1.99-1.65l1.15.65.16-.65.94.25.23-.61,2.13.69v-1s.8.34.8.34l.39-.67c.6.76,1.76-.98,2.28-.98.38,0,.27,1.35,1.15.98l-.33-1.65,1.31.99c.68-.86-1.78-1.25.18-1.64.9-.18-.04.71.64.97.39-.58,2.25-.64,2.41-.75s.2-.76.6-.88c.43-.13.93.33,1.26.32.19,0,.17-.5.27-.55.21-.11.47.47.74-.45l1.32.99c.68-1.07,1.83-.99,2.78-1.5.65-.34.95-1.41,2-1.13-.6.61.87,1.77.99,1.65l.66-1.32.33,1.98c-.85-.09-1.47.12-1.98.83l.99-.17c.71.86-2.22,3.26-3.29,2.31l.66,1.48-2,.65-.31,1.51-1.67-.19-.91,1.68.28.82c-2.71-.03-2.11,2.72-4.63,2.14v1.49s-1.32-.33-1.32-.33l.33,1.32-.83-.03-.64,2-1.49-.65c.76,1.44-.7,1.62-.67,2.97l-1.31-1.32-.15,1.35-.83-.03c.32.44-.47,1.83-.72,1.9-.54.16-1.22-1.05-1.76.91-.07.24.26.71.16.81s-.69-.26-1.03-.16c-.66.2-1.25,1.12-2.27.82l.99.33c.13.6-.55.21-.66.33-.16.18.92.76.66,1.32-2-1.07-1.9.19-2.71.89-.14.12-1.29-.51-.59,1.09l-.61-.26-.05.59-1.64-.65,1.32,1.65h-1.65s.33.99.33.99c-1.69.06-1.55,1.52-3.3.67l.33.99-.98.16.32,1.16.98-.99-.33,2.64.99-.33-.33,2.64,1.96-.65c.33,1.72,1.16,2.4,2.65,3.12l-.98.5.24.66h.75s-.33,1.31-.33,1.31l2.31-.33-.33,1.48c.33.74,1.04.08,1.25.21.31.19.72,1.96,2.05,1.62l-.27.59.77.37-.17.99,1.32.52-.66.16.99.66-.51.99.67.61.82-.61.34.99-.99.33h2.31s-.33.99-.33.99l1.13.36.2-.68c.65.17.74.71.65,1.32l-.64-.32-.35.97,1.35.16-.03.83c1.78-.61,1.63.5,2.3,1.41.47.64,1.3.25.67,1.72l.66-.16-.33.99c.13.1,1.55-.93,1.97.83.23.96-1.06.08-.98.81,1.04.11,1.55.89,2.63.33l.35.83-.66.32c1.07.97,1.7,2.46,3.3,1.49.4.91-1.2.5-.65,1.31.02.03.45-.04.54.11.61,1.06.87,1.92,1.93,2.87.37.33,1.63.59,1.82,1.31l-.99.17c1.99.81-.46.95-.66,1.16-.67.7.83.52.66.98h-2.64s.33.99.33.99c-2.39.59-3.54-1.7-5.27-2.17s-2.97.69-3.83-1.81l-2.12.69-.16.64c-.81.05-1.81-2.54-2.04-2.64-.16-.07-2.75-.68-2.9-.67s-.65,2.01-1.67-.64l-.49.99-.33-.66-.98.66-.2-1.03-1.9.06-.22-.68-.84.97c-.77-.22-2.17-.28-1.48-1.44l1.01-.51c-1.43-.55-3.63,1.45-2.64-1.32-1.16.48-1.37-.65-1.46-.64-.37.02-1.38.44-1.18.97l-.66-.99-1.3.65c-.12-1.2-1.03-1.03-2-.98v-1.33c-1.19.68-1.24-.13-1.4-.21-1.2-.58-.95.58-1.24,1.53l-1.64-.33c-.24,1.12.43,1.52.99,2.3-.58-.19-1.54,1.41-1.31,1.65l.98-.33v.99s-.61-.28-.61-.28c-.75,1.23-1.03,2.48-.71,3.91-.47.17-.27-1.32-.98-.66-.66.61-.08,2.05.99,1.98l-1.65.82.99,1.15-1.64.83.63,1.26-1.62,1.38c2.26,1.91.1,2.37-.99,3.62-.95,1.1-.66,1.98.65.84l.66,1.15c-.57.72-1.16.75-1.98.5l.39,1.61.68.05.25.64c-1.58.43-1.19,1.32-.98,2.65l-.96.2.31,2.44c-.77.5-.67-1.35-1.32-.66-.32.34.93,1.98,1.65,1.81-.16.33-.86.39-.96.55s.84,2.48-1.35,1.6l.98,2.97-.99-.33-.97,3.94.96.18c-.19,1.46-1.11,1.02-1.35,1.36-.36.51-.32,1.83-1.29,2.28.16.34.97.38.99.69.15,2.02-1.74,2.01-1.91,2.53-.02.07-.15,1.52-.09,1.57.23.15,1.09-.32.99.33h-1.98s.99.67.99.67c-.19,1.4-1.86.56-.33,2.3h-.99s.33.99.33.99h-1.32c.29.81-.06,2.8.99,2.65l-2.12,1.93-2.83-.44c-1.42-1.59.15-3-1.97-3.97l.98-.66-.98-.99.68-.35c-.48-.95-.21-2.11-.57-3.05-.16-.41-.76-.39-.75-.54.07-1.08,1.93-1.53-.02-2.66l.99-1.82-1.65-.17.65-.16c.14-.67-.62-.89-.68-1.51-.07-.8,1.68-2.4-.31-2.79l.63-.78c-.39-.56-.49-1.26-.83-1.83-.05-.09-2.15-1.74-.75-1.53.91.14,1.02-.12.95-1.13-.42-.19-.36,1.39-.98.66-.56-.66.67-1.12.68-1.19.05-.77-.67-2.11-.35-3.1l-.98.33c-.53-1.79,2.57-1.86-.33-2.8l1.65-.99-1.65-.83c-.13-.7.42-.9.99-.99l-.98-1.15.98-.82-1.31-.34c-.14-.55.44-.2.6-.39.57-.68-.89-1.74-.85-2.09l.91-1.47-.98-.5c1.87-2.03-1.16-2.58-1-4.6,1.85-1.03-.67-2.23-.66-3.49l-.83.29-.35-.63h-.64c-.66-.09-.7.91-1.04,1.01-1.2.34-1.13-.69-1.27-.68-.17,0-2.94,1.13-3.13,1.34-.17.46,1.33.29.65.98-.03.03-.88.28-.92.25-.09-.07.05-.82-.56-.57-.8.33-.12,1.28-.17,1.31l-1.98-.66.66,1.32c-.69.26-1.64-.36-2.12-.33-.09,0-.41,1.07-1.48.71l-.03.95-.58-.23c-.14.89-.39.48-1.06.23l.33.99-1.32-.66c.74,1.27-.5,2.57-1.16.98-.2.8-1.75.97-2.47.67l.33.99c-1.18-.46-1.9.36-2.48,1.34l-1.64-1-.49.65.66.66c-1.23-.55-1.94.48-1.98,1.65l-.32-.76c-.56-.91-.64.26-.9.43-.47.32-1.21.4-1.59.99l-.32-.67h-.67s-.32.67-.32.67c-.82-1.01-3.06-.32-2.48.98-1.28,0-5.56-.04-4.96,1.63l-1.97.36.34,1.64c-.88.32-.54-.57-.87-.65-1.18-.26-2.4.9-3.29.98-1.71.15-1.05-.35-2.76.54-.34.18-.51.53-.84.73l-.82-.61c.17,1.8-1.46,1.28-2.3,1.84-.26.17-.27.78-.55.83-.11.02-1.88-.3-2.18-.37s.05-.98-1.64-.28c-.27.11-.42,1.32-1.09.31-.46-.7.56-1.93.67-2.66l1.15.02v-1.31s1.51-.32,1.51-.32l.14-1.34c.37-.28.35,1.35.83.33.2-.43-.17-1.25,1.15-1.32l-.66-.33c.45-1.23,1.63-.78,2.64-.66l-.33-1.32c.9.57,1.37-.37,2.31-.33l-.99-1.31c1.21.14,1.79-.96,2.97-.33l.34-2.31,1.31.66c-.78-2.51,2.56-1.61,1.65-3.63h.65s.05.61.05.61l1.9-.99-.29-1.92,2.31.17c.9-.66-.64-1.11-.17-1.82s1.25,0,1.81,0l-.33-1.32c1.62.27,1.7-1.85,2.29-2.51.38-.42,1.05-.34,1.25-.56s.12-.78.4-1.08c.12-.13,3.18.55,1.98-1.62l.6-.24-.24-1.26.98.99.34-1.98,1.64.33-.99-1.31,1.65-.34-.33-.99c2.79.85,1.55-.67,1.81-1.34.2-.5.72-.52,1.15-.32l-.33-1.32,2.62-1.03-.32-2.07.68-.87-.99.17.33-1.15c-.95-.25-2.41-.45-2.8.66-.52-.77-1.38-.74-2.05-1.11-.17-.09.07-.83-.76-.54l-.49.99-.16-.75c-1.24-1-.98.73-1.65,1.08l-.34-1.65-.49.67c-1.21.24-1.63-1.65-1.98-1.66l-.65,1.31-2.98-2.3.16,1.65c-.89-1.49-1.7-1.04-2.81-1.4-.2-.06-.19-.55-.32-.59-1.36-.42-.4.86-1.15,1-.17-1.1,0-1.6-1.16-1.63l-.17-1.01c-1.08.4-1.74,2.28-1.65-.33l-1.83.3-.15-.96-1.15.99-.5-1.32-1.31.33.32-1.32-1.97.99c-.02-1.11-.77-.6-1.33-1.16l.62-.19c.47-.57-1.1-1.64-1.15-.27-.01.33.68,1.09-.28.96-.69-1.23-2.56-1.75-3.89-2.31-.18-.08-.17-.53-.48-.63-.53-.18-3.15-.38-3.38-.68l.33-.65c-.89-.63-2.35.24-2.48.24-.31,0-2.3-2.13-3.46-1.24l.66-.33c-.36-2.24-1.36.4-1.48.33-.08-.59-1.08-.96-1.11-1.03-.09-.24.41-.8.28-.94-.56-.61-.72.64-.8.64l-2.65-.97-.51,1.32c-1.15.09-.42-1.21-1.97-.82l1.32-.5-.66-1.97.49.66c1.13-.45,1.13-1.52,1.36-1.68.74-.52,1.65.6,1.76-1.14l1.51-.48c.29.88.64.7,1.48.66l-.99-1.31,1.27.05c.31,1.98,1.64,1.7,2.19-.05l-.16,1.64c1.54-1.01,2.8.15,3.79.03s.46-1.27,1.47-1l.84,1.63c.64.18.64-.78.87-.92.11-.07,2.19-.5,2.54-.55.46-.07,1.44.32,1.67.12.31-.27,0-2.29,2.01-1.29l-.34.99,1.16.33.16-1.31c.56-.14.13.62.54.68.56.09,1.36-.43,2.26.31l.17-.99.82.66.33-.68,2.8,1.34.17-1.65c.88-.2.37,1.46,1.66,1.67.79.13,1.56-1.23,2.46-1l.33.99v-1.32s.84,1.34.84,1.34l1.14-.02v-1.33s1.27.06,1.27.06c-.05,2.02,3.22.92,4.83,1.1.41.05.8.54,1.22.59,1.01.14,2.19-.04,3.21.2l.08-.91.94-.06-.28-.96.6-.2c-1.1-.7-.4-1.62-.54-2.48-.2-1.16-1.47-1.19-.78-2.3l-.61.29c-.29-.98-.45-.95-1.37-.62-.23-.26.83-1.79-.33-1.98l-.33.99c-.81-1.46-.04-3.67-1.98-3.63l.99-.98-1.98-.34.66-1.97-.83-.34-.32.66-.5-1.32-.98.33c.7-1.38,1.12-3.24-.94-3.01l-.41-2.58-.96-.02.99-1.15-.99-.17.66-1.31c-1.53-1.06-2.24.31-2.78-1.5-.14-.47-.04-1.27-.19-1.8l-.98.99c-.63-2.09,1.87-3.48-1.33-4.12,0-.38,2.65.39.5-1.48l-.33.66c-1.52-.57-.72-1.58-1.65-2.31-.41,1.5-1.67-.6.17-.49l-1.31-.17-.02-1.63-1.18-.33c.49-1.77-.73-1.45-1.38-2.55-.43-.72-.93-2.44-1.36-3.27.53-.25.78,0,.63-.8-1.06.17-1.61.56-2.31-.5l.58-.21c-.65-2.19,1.27-4.03,2.88-1.94l1.47-1.82,1,.18c0,.99-1.09.62-.65,1.98h.98c.04-.06-.56-1.39.17-1.32.5.05.93,1.95,1.21,2.22.09.08,1.79.22,2.09,1.07.06-1.49,1.48.09,1.48.2-.02.88-.56.64.34,1.78l.65-.98c.17,2.33,1.82,1.67,3.08,1.97.34.08.29.79.77.95.42.14.99-.07,1.36.13.41.22,1.04,2.48,1.72,1.9l-.66-1.15c.59-.68.8.52,1.09.72.5.37,1.61,1.19,2.05,1.46.73.44.91-.81.64,1.31.88.33,1.55.71,2.49.31l-.59,1.16c.47,1.25,1.51.46,1.86.57.18.05,1.56,2.4,3.02,1.91-.42,1.2-.37,3.58,1.32,3.29l-.66-1.32,1.32,1.18.99-.37c1.04.81-.32,1.76,1.34,2.35l-.35,1.13,1.98-.65-.66.49.66,1.49.99-.34c-.3,1.29.57.84.97,1.17s.34.93.69,1.3,1.5.68,1.97,1.16c.18-.25-.62-1.37.17-1.65.93-.32-.01,1.37,1.15.98l-.33-1.98.82.66.81-.35c.28-1.04-.31-.95-.96-1.46l1.27-.88-.29-.61,1.65.32c-1.06-1.15.85-1.99,1.1-2.72.16-.47-.19-1.12-.11-1.24.02-.03.48.25.66.14,1.16-.7.2-1.6,0-2.45l1.64,1.65-.65-2.76c.57-.42,1.22-1.2,1.93-.91.54-1.07-.25-1.58-.29-2.6l1.1.31,1.71-1.63c.56-.84-.68-1.51-.51-1.65l1.13.35.25-.6.59.25-.3-.85.62-.15v-.65s-.62-.03-.62-.03l-.03-.63c.62.06,1.99-1.49,1.07-1.66-.57-.1-.89.32-.74-.66l1,.2.32-1.19.99.34c-.07-.59-.06-1.09.66-1l-.98-.82,1.29-.53-.26-2.11.45-.42c.5.49,2.26.08,1.6-.39-.5-.36-.49-1.03-.08-1.31.06-.04.52.3.77.24.35-.09,1.65-1.45.85-1.91,1.02.09,1.34-.31,1.36-1.31l2.61-.02Z"/>
</svg>